<svg xmlns="http://www.w3.org/2000/svg" xmlns:xlink="http://www.w3.org/1999/xlink" width="665.999" height="481.352" viewBox="0 0 665.999 481.352">
  <defs>
    <linearGradient id="linear-gradient" x1="0.5" y1="1" x2="0.5" gradientUnits="objectBoundingBox">
      <stop offset="0" stop-color="gray" stop-opacity="0.251"/>
      <stop offset="0.54" stop-color="gray" stop-opacity="0.122"/>
      <stop offset="1" stop-color="gray" stop-opacity="0.102"/>
    </linearGradient>
  </defs>
  <g id="undraw_stripe_payments_o7aw" transform="translate(-0.001 -35.922)">
    <path id="Path_226" data-name="Path 226" d="M421.962,134.9c-42.7-1.515-83.364-15.637-122.193-31.085s-77.3-32.57-118.969-40.757c-26.806-5.263-57.46-6.006-79.056,8.711-20.788,14.145-27.5,38.629-31.108,61.3-2.717,17.092-4.314,35.04,3.124,51.024,5.169,11.1,14.346,20.423,20.694,31.049,22.073,36.985,6.483,82.592-17.458,118.7-11.2,16.939-24.242,33.1-32.9,51.13S31.429,423.668,39,442.063C46.517,460.3,64.411,473.991,83.8,483.622c39.377,19.568,85.781,25.167,131.028,28.338,100.162,7.02,200.86,3.978,301.287.937,37.167-1.132,74.494-2.269,111.06-8.157,20.3-3.271,41.258-8.458,55.992-20.988,18.713-15.914,23.352-42.831,10.81-62.771-21.012-33.436-79.167-41.735-93.867-77.641-8.092-19.757.218-41.765,11.977-60.118,25.226-39.307,67.509-73.792,69.737-118.728,1.532-30.861-18.8-61.769-50.222-76.368C598.651,72.8,552.973,74.746,528.666,100.079,503.64,126.207,459.66,136.244,421.962,134.9Z" transform="translate(-35 -23.69)" fill="#15b6ac" opacity="0.1"/>
    <ellipse id="Ellipse_52" data-name="Ellipse 52" cx="54.549" cy="8.181" rx="54.549" ry="8.181" transform="translate(345.551 500.912)" fill="#15b6ac" opacity="0.1"/>
    <path id="Path_229" data-name="Path 229" d="M571.3,779.922,466.28,778.578l.312-2.694,5.075-44.435H563.9l6.784,44.435.519,3.365Z" transform="translate(-191.456 -285.587)" fill="#d0d2d5"/>
    <path id="Path_230" data-name="Path 230" d="M571.2,810.205H518.8l-52.515-.672.312-2.694H570.685Z" transform="translate(-191.456 -316.543)" opacity="0.1"/>
    <rect id="Rectangle_141" data-name="Rectangle 141" width="139.363" height="3.365" transform="translate(257.318 490.969)" fill="#d0d2d5"/>
    <path id="Path_231" data-name="Path 231" d="M650.336,296.2a8.764,8.764,0,0,0-8.723-8.811H252.423A8.77,8.77,0,0,0,243.7,296.2V532.113H650.336Z" transform="translate(-120.693 -117.217)" fill="#444053"/>
    <path id="Path_232" data-name="Path 232" d="M243.7,698.6v27.631a8.723,8.723,0,0,0,8.723,8.723h389.19a8.717,8.717,0,0,0,8.723-8.723V698.6Z" transform="translate(-120.693 -286.061)" fill="#d0d2d5"/>
    <rect id="Rectangle_142" data-name="Rectangle 142" width="374.991" height="212.07" transform="translate(139.84 184.985)" fill="#fff"/>
    <path id="Path_233" data-name="Path 233" d="M585.813,729.886a9.1,9.1,0,0,0,7.15-3.473h0a9.012,9.012,0,0,0,.707-1.043l-4.963-.825,5.393.041a9.1,9.1,0,0,0,.171-7.2l-7.232,3.754,6.672-4.9a9.088,9.088,0,1,0-15.024,10.173h0a9.1,9.1,0,0,0,7.126,3.477Z" transform="translate(-257.467 -291.473)" fill="#15b6ac"/>
    <path id="Path_234" data-name="Path 234" d="M572.51,736.59l41.9,42.077-6.43-42.077Z" transform="translate(-235.075 -287.698)" opacity="0.1"/>
    <rect id="Rectangle_143" data-name="Rectangle 143" width="375.398" height="12.389" transform="translate(139.546 185.008)" fill="#444053" opacity="0.1"/>
    <rect id="Rectangle_144" data-name="Rectangle 144" width="10.774" height="7.538" rx="0.78" transform="translate(141.697 187.166)" fill="#15b6ac"/>
    <rect id="Rectangle_145" data-name="Rectangle 145" width="113.105" height="7.538" rx="0.58" transform="translate(269.884 187.166)" fill="#15b6ac" opacity="0.3"/>
    <path id="Path_235" data-name="Path 235" d="M676.1,321.3h-.277l-.1-.082a2.322,2.322,0,0,0,.536-1.468A2.234,2.234,0,1,0,674.036,322a2.358,2.358,0,0,0,1.462-.536l.1.082v.277l1.727,1.727.513-.519Zm-2.063,0a1.556,1.556,0,1,1,1.55-1.55,1.538,1.538,0,0,1-1.55,1.55Z" transform="translate(-296.469 -129.592)" fill="#444053"/>
    <circle id="Ellipse_53" data-name="Ellipse 53" cx="3.772" cy="3.772" r="3.772" transform="translate(505.784 187.16)" fill="#15b6ac"/>
    <path id="Path_236" data-name="Path 236" d="M608.844,413.74H436.97c-5.953,0-10.78,4.5-10.78,10.055V518.4c0,5.552,4.827,10.055,10.78,10.055H608.844c5.953,0,10.78-4.5,10.78-10.055V423.8C619.624,418.243,614.8,413.74,608.844,413.74Z" transform="translate(-195.624 -169.097)" opacity="0.1"/>
    <rect id="Rectangle_146" data-name="Rectangle 146" width="180.402" height="114.72" rx="18.67" transform="translate(237.138 239.256)" fill="#454b69"/>
    <rect id="Rectangle_147" data-name="Rectangle 147" width="28.68" height="9.731" rx="4.8" transform="translate(256.087 303.783)" fill="#15b6ac" opacity="0.3"/>
    <rect id="Rectangle_148" data-name="Rectangle 148" width="28.68" height="9.731" rx="4.8" transform="translate(294.498 303.783)" fill="#15b6ac" opacity="0.3"/>
    <rect id="Rectangle_149" data-name="Rectangle 149" width="25.096" height="7.167" rx="3.584" transform="translate(310.37 323.758)" fill="#15b6ac" opacity="0.3"/>
    <rect id="Rectangle_150" data-name="Rectangle 150" width="28.68" height="9.731" rx="4.8" transform="translate(332.908 303.783)" fill="#15b6ac" opacity="0.3"/>
    <rect id="Rectangle_151" data-name="Rectangle 151" width="28.68" height="9.731" rx="4.8" transform="translate(371.319 303.783)" fill="#15b6ac" opacity="0.3"/>
    <rect id="Rectangle_152" data-name="Rectangle 152" width="19.462" height="19.462" rx="2.95" transform="translate(258.645 280.738)" fill="#15b6ac"/>
    <path id="Path_237" data-name="Path 237" d="M491.492,492.642H485.35V486.5h6.142Zm-5.894-.253h5.635v-5.635H485.6Z" transform="translate(-219.915 -198.972)" fill="#454b69"/>
    <rect id="Rectangle_153" data-name="Rectangle 153" width="0.253" height="6.914" transform="translate(268.376 280.738)" fill="#454b69"/>
    <rect id="Rectangle_154" data-name="Rectangle 154" width="0.253" height="6.66" transform="translate(268.376 293.54)" fill="#454b69"/>
    <rect id="Rectangle_155" data-name="Rectangle 155" width="6.914" height="0.253" transform="translate(258.645 290.339)" fill="#454b69"/>
    <rect id="Rectangle_156" data-name="Rectangle 156" width="6.66" height="0.253" transform="translate(271.452 290.339)" fill="#454b69"/>
    <path id="Path_238" data-name="Path 238" d="M445.655,461.607l-2.01-2H438.83v-.259h4.921l2.087,2.075Z" transform="translate(-180.185 -173.862)" fill="#454b69"/>
    <path id="Path_239" data-name="Path 239" d="M460.581,461.607l-.171-.189,2.34-2.069h4.4v.259h-4.3Z" transform="translate(-189.046 -173.862)" fill="#454b69"/>
    <path id="Path_240" data-name="Path 240" d="M443.757,475.446H438.83v-.259h4.809l2.01-2.316.195.171Z" transform="translate(-180.185 -179.413)" fill="#454b69"/>
    <path id="Path_241" data-name="Path 241" d="M467.149,475.442H462.74l-2.34-2.4.183-.183,2.269,2.322h4.3Z" transform="translate(-189.042 -179.409)" fill="#454b69"/>
    <rect id="Rectangle_157" data-name="Rectangle 157" width="54.543" height="9.731" rx="4.1" transform="translate(255.957 248.091)" fill="#15b6ac"/>
    <path id="Path_242" data-name="Path 242" d="M690.532,595.549c-.035-1.014-.159-2.028-.283-3.035-.454-3.784-.919-7.568-1.656-11.3a11.987,11.987,0,0,0-.589-2.134c-.265-.654-.631-1.255-.908-1.9a.329.329,0,0,0,0-.071c.342-.165.678-.33,1.008-.507a5.055,5.055,0,0,0,.684-.419,1.932,1.932,0,0,0,.536-.589c.589-1.037-.071-2.358-.371-3.536h0c-.318-1.267-.247-2.788-1.179-3.637-3.324-2.947-1.674-8.959-3.336-13.179-.295-.737-.631-1.462-.884-2.216-.195-.589-.33-1.179-.471-1.768q-1.768-7.367-3.725-14.67c-1.373-5.045-1.226-10.3-2.947-15.23a16.373,16.373,0,0,0-1.267-2.947,7.912,7.912,0,0,0-2.287-2.47,22.367,22.367,0,0,0-7.986-3.843,43.405,43.405,0,0,0-9.136-.519,9.679,9.679,0,0,0-4.267-3.33l-.053-.153a10.554,10.554,0,0,1-.554-1.845,12.58,12.58,0,0,1-.147-1.886c0-.678-.029-1.361-.047-2.039l.165-.159a11.416,11.416,0,0,0,1.084-1.332,9.342,9.342,0,0,0,.825-1.409,13.083,13.083,0,0,0,.672-1.727,19.439,19.439,0,0,0,.725-3.66c.159-1.456.206-2.947.247-4.4v-1.88a7.939,7.939,0,0,0-1.1-4.291c-1.067-1.591-2.894-2.358-4.656-2.994-3.536-1.226-7.421-2.033-10.916-.719-2.776,1.049-4.992,3.336-7.733,4.5h0a3.4,3.4,0,0,1,.171.324.338.338,0,0,1,0,.047c.047.106.088.206.124.312h0a3.872,3.872,0,0,1,.195.737h0a4.364,4.364,0,0,1,0,1.438,4.917,4.917,0,0,1-2.641.389,8.394,8.394,0,0,0,1.662,3.018c.242.306.5.589.737.914l.371.46a9.56,9.56,0,0,1,1.526,2.47,4.812,4.812,0,0,1,.289,1.1c.112.748.083,1.609.183,2.358a3.579,3.579,0,0,0,.242.937,9.872,9.872,0,0,0,5.234,7.35,21.692,21.692,0,0,1,0,7.038,1.817,1.817,0,0,1-.077.389,34.56,34.56,0,0,1-5.116,5.735,18.617,18.617,0,0,1-2.87,1.851,7.882,7.882,0,0,1-1.892.784c-.743.171-1.521.147-2.257.33a5.9,5.9,0,0,0-3.354,2.729,19.7,19.7,0,0,1-1.238,1.992c-.413.513-.931.931-1.367,1.42-1.58,1.768-2.01,4.326-2.358,6.719a30.752,30.752,0,0,1-4.026,3.719,5.892,5.892,0,0,1-1.5.866,4.665,4.665,0,0,1-4.126-1.026c-1.208-.9-2.151-2.075-3.318-2.994l-.306.454a2.441,2.441,0,0,1-.242-.277,5.894,5.894,0,0,1-.973-2.251c-.424-2.175.377-4.5-.248-6.619-.23-.766-.784-1.556-1.55-1.538s-1.244.784-1.9,1.143c-1.061.589-2.357.053-3.407-.53s-2.246-1.238-3.395-.89a2.411,2.411,0,0,0,.878,2,5.347,5.347,0,0,1,1.426,1.727,7.8,7.8,0,0,1,.194,2.234,8.849,8.849,0,0,0,2.2,4.544q1.91,2.446,4,4.75h0a1.474,1.474,0,0,1-.743.643,1.56,1.56,0,0,0,0,.855,3.47,3.47,0,0,0,.224.56c.136.277.3.548.442.8l2.069,3.637.336.589c.141.248.283.483.43.725a13.341,13.341,0,0,0,1.727,2.358,7.073,7.073,0,0,0,1.085.931,5.613,5.613,0,0,0,.807.483,4.71,4.71,0,0,0,1.25.43,3.9,3.9,0,0,0,.648.083,4.333,4.333,0,0,0,.678,0,9.027,9.027,0,0,0,1.986-.513c3.943-1.385,7.562-3.6,11.31-5.475a6.3,6.3,0,0,1,1.644-.636,2.7,2.7,0,0,1,.589-.047,2.166,2.166,0,0,1,.589.1,2.126,2.126,0,0,1,.53.265,1.527,1.527,0,0,1,.643.955c.112.589.218,1.138.324,1.7s.224,1.132.342,1.7c.236,1.126.489,2.251.784,3.366.159.589.312,1.214.466,1.827.377,1.5.749,3.006,1.091,4.515.106.471.206.949.3,1.42a21.783,21.783,0,0,1,.377,2.54.222.222,0,0,1,0,.059c.059.743.065,1.479.071,2.222v2.328l.059,6.872a5.661,5.661,0,0,1-.949,2.5c-.083.183-.159.371-.224.56h0a6.368,6.368,0,0,0-.195.731,1.678,1.678,0,0,1-.047.236,1.147,1.147,0,0,1-.035.271c-.035.089,0,.177-.03.259a.768.768,0,0,0,0,.259v1.049c0,.071.041.23.059.348l.035.177c.041.171.083.342.141.513.118.354.265.7.418,1.043s.307.69.436,1.043a7.068,7.068,0,0,1,.212.684,1.5,1.5,0,0,1,.035.159c.047.183.089.365.124.554v.13c.035.2.065.407.088.589a.292.292,0,0,1,0,.071c0,.23.047.46.059.69h0a22.722,22.722,0,0,1,0,2.534l-.071,4.2v.13h0a.738.738,0,0,0,.082.377.46.46,0,0,0,.395.212,1.5,1.5,0,0,0,.819-.318l1.874-1.362h.118a18.29,18.29,0,0,0-2.894,7.939,25.354,25.354,0,0,0,.36,5.617c1.727,12.377,5.794,24.867,4.939,37.362-.336,4.921,1.7,9.719,1.692,14.646,0,1.916-.324,3.813-.407,5.723-.359,8.2,3.825,16.5,2.122,24.519.589,1.992,2.823,3.053,3.454,5.034.53,1.68-.236,3.466-.855,5.11a10.408,10.408,0,0,0-.513,1.768,14.281,14.281,0,0,0-4.762.513,7.086,7.086,0,0,0-.925.377c-1.055.631-1.126,2.357-.46,3.4a27.835,27.835,0,0,0,5.5,4.921l2.4,1.179A14.393,14.393,0,0,0,648.444,713a14.108,14.108,0,0,0,3.66-.071,3.607,3.607,0,0,0,2.582-1.02c.855-1.085.418-2.847-.165-4.415a1.575,1.575,0,0,0,.483-.654,5.233,5.233,0,0,0,.159-1.255,9.43,9.43,0,0,1,.837-2.358c.984-2.4.943-5.1.884-7.709a89.424,89.424,0,0,0-.872-12.69c-.295-1.768-.7-3.536-1.037-5.3a87.781,87.781,0,0,1-1.609-19.45,15.567,15.567,0,0,0-.654-4.68,8.4,8.4,0,0,1-.153-2.67l.707-10.792a43.315,43.315,0,0,0,.1-6.6c-.1-1.179-.295-2.358-.413-3.536a53.805,53.805,0,0,1-.112-6.754c.065-2.422.177-5.022,1.562-6.967a1.085,1.085,0,0,1,.66-.513c.283-.041.365.342.259.589.147.448.3.89.454,1.338.047.13.088.253.135.377.077.23.159.46.242.69s.118.318.171.477l.23.589c.065.177.136.348.2.519s.147.371.224.554.153.365.236.548.142.336.218.507l.283.589c.071.147.141.3.218.448s.23.43.348.642c.065.124.13.247.2.365.189.33.383.648.589.967h0c.4.589.831,1.179,1.179,1.81a5.99,5.99,0,0,1,.33.642,15.887,15.887,0,0,1,.772,2.511c.206.778.448,1.538.713,2.287s.589,1.5.878,2.228c.159.365.324.731.489,1.09.5,1.09,1.031,2.163,1.574,3.224a3,3,0,0,1,.224.589,2.75,2.75,0,0,1,.065.3,2.685,2.685,0,0,1,0,.589,2.485,2.485,0,0,1-.047.365,2.744,2.744,0,0,1-.159.531c-.725,1.656-.141,3.289.177,4.916a31.077,31.077,0,0,1,.4,5.187c0,.589,0,1.179.053,1.727,0,.719,0,1.432.041,2.151s0,1.544.041,2.316a20.158,20.158,0,0,1-.094,2.316,5.237,5.237,0,0,1-.112.8c-.13.8-.312,1.586-.471,2.358a46.881,46.881,0,0,0-.813,9.43q0,1.9.124,3.813c.071,1.279.171,2.552.283,3.831.059.7.13,1.4.2,2.1.118,1.214.248,2.428.377,3.642s.271,2.552.395,3.819.236,2.534.324,3.8a3.177,3.177,0,0,1-.377,1.8,4.041,4.041,0,0,0-.295.684,3.67,3.67,0,0,0-.13.5,5.271,5.271,0,0,0-.071.589,6.718,6.718,0,0,0,.071,1.238q.047.307.106.589c.089.407.195.813.3,1.214a12.219,12.219,0,0,0,1.179,3.183,4.722,4.722,0,0,0,.389.589c.041.059.088.112.136.171a4.238,4.238,0,0,1,.336.448,1.421,1.421,0,0,1,.124.23,1.809,1.809,0,0,1,.071,1.02c-.065.354-.189.707-.283,1.043h0l.306.041c-.43,1.362-.631,2.758.094,3.672a3.575,3.575,0,0,0,2.582,1.02,13.847,13.847,0,0,0,3.66.077,14.388,14.388,0,0,0,4.126-1.556l2.4-1.179a26.938,26.938,0,0,0,5.5-4.927c.666-1.073.589-2.764-.454-3.395a6.644,6.644,0,0,0-.925-.383,13.545,13.545,0,0,0-4.379-.507c-.083-.589-.13-1.232-.153-1.839a50.8,50.8,0,0,1,.13-6.766c.136-1.6.342-3.189.324-4.786a59.445,59.445,0,0,0-.672-6.365c-.23-2.122-.253-4.2-.289-6.295-.053-3.088.855-6.03,1.25-9.083l.69-5.369a6.53,6.53,0,0,0,.047-1.974c-.106-.589-.377-1.179-.489-1.768-.242-1.338.365-2.664.554-4.014a16.958,16.958,0,0,0-.336-4.68,60.868,60.868,0,0,1-.407-7.4c-.212-15.206-.642-30.755-5.782-44.983-.206-.589-.43-1.179-.66-1.727a3.076,3.076,0,0,0,.306-.1,2.075,2.075,0,0,0,.454-.236,1.244,1.244,0,0,0,.177-.13,1.364,1.364,0,0,0,.348-.589,2.224,2.224,0,0,0,.106-.666,4.755,4.755,0,0,0-.171-1.179l-.071-.242c-.118-.4-.247-.8-.383-1.179h0c-.13-.383-.271-.754-.419-1.132a13.769,13.769,0,0,1-.743-2.163c-.36-1.674,0-3.607-1.008-4.969-2.228-3.053-.654-7.745-1.586-11.464-.307-1.179-.754-2.358-1.037-3.536-.177-.754-.289-1.526-.4-2.3a28.623,28.623,0,0,1-.436-5.057,21.643,21.643,0,0,1,.23-2.54l.707-5.847a17.447,17.447,0,0,1,1.674,4.809c.053.242.1.477.153.719a85.108,85.108,0,0,0,2.358,8.535c.536,1.692,1.067,3.377,1.644,5.051.171.477.336.961.489,1.45a11.648,11.648,0,0,1,.354,1.491c.065.4.094.813.124,1.22s.053.825.094,1.232a11.6,11.6,0,0,0,1.709,4.9c.029.038.057.077.083.118a1.39,1.39,0,0,0,.719.625h0a1.582,1.582,0,0,0,.643,0h.035c.312-.065.625-.136.931-.212a1.183,1.183,0,0,0,.136-.035c.141,1.827.684,3.648.731,5.493.059,2.682-.925,5.252-1.55,7.851a50.053,50.053,0,0,0-1.055,7.2,3.188,3.188,0,0,0,.089,1.438,1.02,1.02,0,0,0,1.073.725,1.3,1.3,0,0,0,.76-.678,5.381,5.381,0,0,0,.654-3.884c.56.118.849.76.984,1.344a8.075,8.075,0,0,1-.248,4.562c-.348.978-.884,1.88-1.179,2.888a1.508,1.508,0,0,0,0,.967c.295.678,1.226.631,1.9.383a9.542,9.542,0,0,0,5-4.715,14.453,14.453,0,0,0,1.468-6.849Z" transform="translate(-263.934 -195.924)" fill="url(#linear-gradient)"/>
    <path id="Path_243" data-name="Path 243" d="M686.893,866.575a3.851,3.851,0,0,1-2.688,1.014,15.328,15.328,0,0,1-3.813.071,15.553,15.553,0,0,1-4.285-1.544l-2.5-1.179a27.916,27.916,0,0,1-5.723-4.9c-.7-1.067-.625-2.747.472-3.377a7.674,7.674,0,0,1,.967-.377c1.839-.731,5.564-.36,7.521-.642a5.21,5.21,0,0,1,2.782.654c1.933.855,5.34,1.532,6.183,3.707C686.463,861.671,688.255,864.919,686.893,866.575Z" transform="translate(-294.68 -350.539)" fill="#2f2e41"/>
    <path id="Path_244" data-name="Path 244" d="M723.644,863.831a3.852,3.852,0,0,0,2.688,1.014,11.5,11.5,0,0,0,8.092-1.479l2.5-1.179a27.786,27.786,0,0,0,5.729-4.9c.7-1.067.625-2.752-.477-3.377a6.483,6.483,0,0,0-.961-.377c-1.839-.731-5.564-.359-7.521-.643a5.192,5.192,0,0,0-2.788.654c-1.927.855-5.3,1.532-6.177,3.707C724.057,858.927,722.259,862.175,723.644,863.831Z" transform="translate(-317.551 -349.409)" fill="#2f2e41"/>
    <path id="Path_245" data-name="Path 245" d="M703.77,667.135a29.763,29.763,0,0,1,1.574,3.583c5.352,14.146,5.8,29.623,6.024,44.753a56.85,56.85,0,0,0,.419,7.362,15.78,15.78,0,0,1,.348,4.662c-.195,1.338-.825,2.658-.589,3.984.112.589.395,1.179.507,1.768A6.1,6.1,0,0,1,712,735.21l-.713,5.34c-.413,3.041-1.356,5.965-1.3,9.035.035,2.092.071,4.185.3,6.265a62.009,62.009,0,0,1,.7,6.33c0,1.591-.2,3.177-.342,4.762a49.336,49.336,0,0,0-.136,6.731,10.432,10.432,0,0,0,1.179,4.992A9.326,9.326,0,0,1,708,782.2c-3.342,1.462-7.179.967-10.792.442a3.039,3.039,0,0,0,.218-2.057,3.876,3.876,0,0,0-.619-.843,10.02,10.02,0,0,1-1.609-3.737c-.436-1.6-.872-3.312,0-4.839a3.064,3.064,0,0,0,.395-1.768c-.748-10.02-2.982-20.417-.925-30.266a32.171,32.171,0,0,0,.589-3.165,38.775,38.775,0,0,0,.059-4.609l.024-2.2a43.337,43.337,0,0,0-.471-6.878c-.324-1.615-.937-3.242-.183-4.892a2.681,2.681,0,0,0-.112-2.357,43.615,43.615,0,0,1-3.807-8.788,15.224,15.224,0,0,0-.8-2.5,17.708,17.708,0,0,0-1.58-2.434,36.843,36.843,0,0,1-3.914-8.582c.112-.277,0-.654-.265-.589a1.108,1.108,0,0,0-.69.513c-1.438,1.933-1.562,4.515-1.627,6.931a51.183,51.183,0,0,0,.118,6.719c.118,1.179.324,2.358.43,3.536a41.4,41.4,0,0,1-.106,6.566L681.6,727.1a7.715,7.715,0,0,0,.153,2.658,14.871,14.871,0,0,1,.684,4.65,83.616,83.616,0,0,0,1.7,19.32c.354,1.768.772,3.5,1.078,5.263a86.1,86.1,0,0,1,.908,12.625c.065,2.6.106,5.3-.919,7.662a8.777,8.777,0,0,0-.872,2.358,4.868,4.868,0,0,1-.165,1.249,2.548,2.548,0,0,1-2.01,1.279,16.353,16.353,0,0,1-4.639.33,2.6,2.6,0,0,1-1.055-.236c-.589-.3-.884-.937-1.326-1.415-.949-1.037-2.528-1.356-3.395-2.464-1.084-1.391-.631-3.4,0-5.039s1.438-3.413.884-5.086c-.654-1.963-2.947-3.023-3.6-5,1.768-7.98-2.582-16.232-2.21-24.4.088-1.9.419-3.79.424-5.694,0-4.9-2.1-9.678-1.768-14.57.89-12.43-3.348-24.843-5.14-37.179a24.018,24.018,0,0,1-.377-5.581,18.56,18.56,0,0,1,3.419-8.534,11.554,11.554,0,0,1,4.768-4.515,13.537,13.537,0,0,1,5.4-.7c4.562.035,9.124.071,13.686.153a45.018,45.018,0,0,1,9.254.825C698.954,665.626,701.265,666.776,703.77,667.135Z" transform="translate(-291.599 -271.89)" fill="#2f2e41"/>
    <g id="Group_37" data-name="Group 37" transform="translate(392.997 420.215)" opacity="0.1">
      <path id="Path_246" data-name="Path 246" d="M702.134,712.141a1.126,1.126,0,0,1,.69-.513c.295-.041.383.336.271.589A36.53,36.53,0,0,0,707,720.8a17.227,17.227,0,0,1,1.585,2.434,15.826,15.826,0,0,1,.8,2.5,43.913,43.913,0,0,0,3.8,8.788,2.664,2.664,0,0,1,.112,2.358c-.754,1.65-.141,3.277.189,4.892a45.521,45.521,0,0,1,.472,6.878c0,.713,0,1.426.041,2.139a37.549,37.549,0,0,1-.053,4.609c-.124,1.067-.383,2.116-.589,3.165-2.051,9.849.177,20.228.925,30.266a3.059,3.059,0,0,1-.389,1.768c-.9,1.526-.46,3.242,0,4.839a9.854,9.854,0,0,0,1.609,3.737,4.3,4.3,0,0,1,.589.843,2.91,2.91,0,0,1-.224,2.057,45.448,45.448,0,0,0,4.821.513,34.869,34.869,0,0,1-6.253-.513,3.038,3.038,0,0,0,.218-2.057,3.878,3.878,0,0,0-.619-.843,10.022,10.022,0,0,1-1.609-3.737c-.436-1.6-.872-3.313,0-4.839a3.065,3.065,0,0,0,.395-1.768c-.749-10.02-2.982-20.417-.925-30.266a32.188,32.188,0,0,0,.589-3.165,38.789,38.789,0,0,0,.059-4.609c0-.713-.03-1.426-.047-2.139a43.333,43.333,0,0,0-.471-6.878c-.324-1.615-.937-3.242-.183-4.892a2.682,2.682,0,0,0-.112-2.358,43.614,43.614,0,0,1-3.807-8.788,15.826,15.826,0,0,0-.8-2.5,17.719,17.719,0,0,0-1.58-2.434,34.209,34.209,0,0,1-3.766-8.175C701.91,712.476,702.016,712.306,702.134,712.141Z" transform="translate(-701.78 -711.625)"/>
    </g>
    <path id="Path_247" data-name="Path 247" d="M601.635,567.2c-.442-2.163.395-4.479-.259-6.583-.236-.76-.813-1.55-1.609-1.532s-1.3.778-1.98,1.137c-1.1.589-2.446.053-3.536-.524s-2.358-1.238-3.536-.89a2.34,2.34,0,0,0,.919,1.992,5.487,5.487,0,0,1,1.479,1.721,7.517,7.517,0,0,1,.206,2.222,8.322,8.322,0,0,0,2.293,4.521,80.871,80.871,0,0,0,5.558,6.159s2.947-3.678,2.906-4.32-1.049-1.179-1.415-1.662A5.638,5.638,0,0,1,601.635,567.2Z" transform="translate(-263.168 -228.62)" fill="#a1616a"/>
    <path id="Path_248" data-name="Path 248" d="M753.523,647.446a11.445,11.445,0,0,1,.589,2.122c.766,3.713,1.25,7.479,1.727,11.24.124,1,.253,2.01.289,3.018a13.775,13.775,0,0,1-1.432,6.949,9.719,9.719,0,0,1-5.2,4.715c-.7.247-1.668.295-1.974-.377a1.45,1.45,0,0,1,0-.961c.277-1,.837-1.9,1.179-2.876a7.751,7.751,0,0,0,.259-4.538c-.141-.589-.442-1.22-1.026-1.338a5.157,5.157,0,0,1-.684,3.866,1.338,1.338,0,0,1-.79.672,1.067,1.067,0,0,1-1.12-.719,3.081,3.081,0,0,1-.088-1.432,48.161,48.161,0,0,1,1.1-7.167c.648-2.587,1.68-5.139,1.609-7.809-.059-2.417-1.02-4.792-.749-7.191a.59.59,0,0,1,.436-.589,15.9,15.9,0,0,1,2.081-.69c.419-.106,1.845-.589,2.246-.377s.424,1.255.589,1.621C752.869,646.191,753.252,646.792,753.523,647.446Z" transform="translate(-326.612 -263.605)" fill="#a1616a"/>
    <circle id="Ellipse_54" data-name="Ellipse 54" cx="9.872" cy="9.872" r="9.872" transform="translate(369.339 292.485)" fill="#a1616a"/>
    <path id="Path_249" data-name="Path 249" d="M681.739,520.368a11.149,11.149,0,0,0,.147,1.88,10.03,10.03,0,0,0,.589,1.833,10.694,10.694,0,0,0,1.379,2.711,4.037,4.037,0,0,0,2.5,1.627A71,71,0,0,1,665,534.59a9.006,9.006,0,0,0,2.829-3.024,8.546,8.546,0,0,0,.749-2.458,20.629,20.629,0,0,0-.925-10.65c-.124-.33-.242-.743,0-1.02a1.009,1.009,0,0,1,.354-.224,21.93,21.93,0,0,1,9.277-1.733c.813,0,1.627.041,2.44.1.436.035,1.4-.059,1.768.259s.206,1.568.218,2.081Z" transform="translate(-293.681 -210.868)" fill="#a1616a"/>
    <path id="Path_250" data-name="Path 250" d="M662.173,533.169a10.574,10.574,0,0,0-12.637-3.147c-4.715,2.246-7.014,7.662-11.146,10.8a19.457,19.457,0,0,1-2.994,1.845,8.364,8.364,0,0,1-1.969.778c-.772.171-1.574.147-2.358.33a6.054,6.054,0,0,0-3.5,2.711,18.36,18.36,0,0,1-1.285,1.98c-.43.513-.967.931-1.421,1.42-1.644,1.768-2.092,4.3-2.464,6.684a31.657,31.657,0,0,1-4.2,3.7,5.894,5.894,0,0,1-1.556.861,4.937,4.937,0,0,1-4.273-1.014c-1.232-.89-2.234-2.063-3.448-2.947-1.114,1.591-2.281,3.195-3.472,4.715a1.492,1.492,0,0,1-.778.637c-.224.754.312,1.532.713,2.2l2.151,3.619a18.338,18.338,0,0,0,2.6,3.642,6.1,6.1,0,0,0,3.955,1.857,7.821,7.821,0,0,0,2.776-.536c4.126-1.379,7.869-3.578,11.788-5.452a5.24,5.24,0,0,1,2.31-.678,1.868,1.868,0,0,1,1.827,1.314c.448,2.263.89,4.515,1.5,6.731q.878,3.147,1.621,6.312a27.248,27.248,0,0,1,.707,3.943c.065.754.071,1.509.082,2.269l.083,9.147a5.457,5.457,0,0,1-.99,2.487,5.894,5.894,0,0,0-.277,4.4c.242.713.625,1.373.9,2.081a14.324,14.324,0,0,1,.589,5.4l-.077,4.173a.872.872,0,0,0,.088.507c.253.395.866.165,1.255-.106l1.927-1.32a44.574,44.574,0,0,0,7.886.383c7.491-.106,14.988.189,22.462.713,2.5.177,5.075.365,7.432-.466,1.179-.424,2.3-1.1,3.536-1.438a3.229,3.229,0,0,0,1.4-.589c.684-.631.5-1.768.224-2.629-.248-.778-.525-1.55-.837-2.3a13.98,13.98,0,0,1-.778-2.151c-.371-1.662,0-3.589-1.043-4.945-2.322-3.035-.678-7.709-1.656-11.4-.312-1.179-.778-2.358-1.073-3.536a23.213,23.213,0,0,1-.419-2.287,26.777,26.777,0,0,1-.454-5.033,20.162,20.162,0,0,1,.242-2.523l.737-5.823a18.539,18.539,0,0,1,1.9,5.5,80.769,80.769,0,0,0,2.476,8.493c.554,1.68,1.108,3.354,1.709,5.022a16.349,16.349,0,0,1,.878,2.947c.13.807.135,1.633.23,2.44a11.132,11.132,0,0,0,1.768,4.874,1.6,1.6,0,0,0,.837.743,1.681,1.681,0,0,0,.725,0,28.851,28.851,0,0,0,7.5-2.593,3.062,3.062,0,0,0,1.267-.99c.636-1.037-.077-2.328-.389-3.507s-.253-2.776-1.244-3.619c-3.46-2.947-1.768-8.918-3.471-13.114-.307-.737-.66-1.45-.92-2.2-.2-.589-.348-1.179-.495-1.768q-1.809-7.326-3.878-14.6c-1.426-5.022-1.273-10.25-3.071-15.153A15.983,15.983,0,0,0,682.371,540a8.047,8.047,0,0,0-2.358-2.458,23.587,23.587,0,0,0-8.311-3.819A46,46,0,0,0,662.173,533.169Z" transform="translate(-268.893 -216.466)" fill="#3f3d56"/>
    <path id="Path_251" data-name="Path 251" d="M659.064,501.539c-1.326-.713-.978-2.658-1.179-4.126-.466-3.071-3.925-4.886-4.715-7.88a5.3,5.3,0,0,0,2.747-.389,4.209,4.209,0,0,0-.554-2.876c2.847-1.179,5.157-3.424,8.045-4.468,3.643-1.314,7.662-.507,11.364.713a9.039,9.039,0,0,1,4.845,2.976c1.214,1.739,1.179,4.02,1.132,6.141-.1,3.324-.236,6.766-1.715,9.743-1.88,3.79-7.214,7.3-11.623,6.271-1.827-.424-2.357-1.58-3.141-3.171-.483-.99-.66-2.14-1.768-2.658S660.143,502.117,659.064,501.539Z" transform="translate(-288.823 -196.766)" fill="#3f3d56"/>
    <g id="Group_38" data-name="Group 38" transform="translate(335.732 344.941)" opacity="0.1">
      <path id="Path_252" data-name="Path 252" d="M659.472,667.822a.2.2,0,0,0,0,.053c.253.395.866.165,1.255-.106l1.957-1.35a44.593,44.593,0,0,0,7.886.377c7.491-.106,14.988.189,22.462.713,2.5.177,5.075.366,7.432-.466,1.179-.424,2.3-1.1,3.536-1.438a4.067,4.067,0,0,0,1.22-.436c.142.389.277.778.4,1.179.277.89.46,2-.224,2.629a3.231,3.231,0,0,1-1.4.589c-1.226.336-2.357,1.014-3.536,1.438-2.358.831-4.933.643-7.432.466-7.474-.525-14.971-.819-22.462-.713a44.591,44.591,0,0,1-7.874-.383l-1.957,1.356c-.389.271-1,.5-1.255.106a.871.871,0,0,1-.088-.507Q659.436,669.579,659.472,667.822Z" transform="translate(-627.108 -617.276)"/>
      <path id="Path_253" data-name="Path 253" d="M730.1,602.024a18.537,18.537,0,0,0-1.9-5.5l-.737,5.823c-.047.365-.094.731-.135,1.1a18.055,18.055,0,0,1-.106-2.523,20.172,20.172,0,0,1,.242-2.523l.737-5.823a18.538,18.538,0,0,1,1.9,5.5,80.824,80.824,0,0,0,2.476,8.493c.554,1.68,1.108,3.36,1.709,5.022a16.509,16.509,0,0,1,.878,2.947c.13.807.135,1.633.23,2.44a11.046,11.046,0,0,0,1.768,4.874,1.568,1.568,0,0,0,.831.743,1.683,1.683,0,0,0,.725-.029,28.851,28.851,0,0,0,7.5-2.593,4.7,4.7,0,0,0,.878-.56h0c.312,1.179,1.026,2.47.389,3.507a3.06,3.06,0,0,1-1.267.99,28.847,28.847,0,0,1-7.5,2.593,1.679,1.679,0,0,1-.725,0,1.567,1.567,0,0,1-.831-.743,11.068,11.068,0,0,1-1.768-4.874c-.094-.807-.1-1.633-.23-2.44a16.359,16.359,0,0,0-.878-2.947c-.589-1.668-1.179-3.342-1.709-5.022A80.832,80.832,0,0,1,730.1,602.024Z" transform="translate(-654.96 -587.466)"/>
      <path id="Path_254" data-name="Path 254" d="M731.08,635.84v.79C731.092,636.365,731.086,636.105,731.08,635.84Z" transform="translate(-656.545 -605.233)"/>
      <path id="Path_255" data-name="Path 255" d="M657.718,651.289a14.327,14.327,0,0,1,.589,5.4v1.426a9.733,9.733,0,0,0-.589-2.876c-.271-.707-.654-1.367-.9-2.081a5.894,5.894,0,0,1,.047-3.837C657.111,649.992,657.459,650.623,657.718,651.289Z" transform="translate(-625.932 -610.768)"/>
      <path id="Path_256" data-name="Path 256" d="M605.469,584.346l.336-.436,1.768,2.947a18.181,18.181,0,0,0,2.6,3.642,6.1,6.1,0,0,0,3.943,1.916,7.946,7.946,0,0,0,2.776-.53c4.126-1.385,7.868-3.584,11.788-5.458a5.238,5.238,0,0,1,2.275-.7,1.874,1.874,0,0,1,1.827,1.32c.448,2.257.89,4.509,1.5,6.725q.878,3.147,1.621,6.312a27.249,27.249,0,0,1,.707,3.943c.065.754.071,1.515.077,2.269l.088,9.153a2.206,2.206,0,0,1-.035.4l-.053-5.605a22.383,22.383,0,0,0-.077-2.269,27.251,27.251,0,0,0-.707-3.943q-.754-3.165-1.621-6.312c-.589-2.216-1.055-4.468-1.5-6.731a1.868,1.868,0,0,0-1.827-1.314,5.238,5.238,0,0,0-2.31.678c-3.9,1.874-7.662,4.073-11.788,5.452a7.819,7.819,0,0,1-2.776.536,6.1,6.1,0,0,1-3.943-1.916,18.35,18.35,0,0,1-2.6-3.642c-.713-1.208-1.432-2.411-2.151-3.619-.4-.672-.937-1.45-.713-2.2A1.491,1.491,0,0,0,605.469,584.346Z" transform="translate(-604.62 -583.91)"/>
    </g>
    <g id="Group_39" data-name="Group 39" transform="translate(364.323 289.272)" opacity="0.1">
      <path id="Path_257" data-name="Path 257" d="M657.372,491.116h0a4.122,4.122,0,0,0-.542-1.444q.248-.1.5-.212a4.126,4.126,0,0,1,.047,1.656Z" transform="translate(-654.649 -489.46)"/>
      <path id="Path_258" data-name="Path 258" d="M657.845,501.8c.224,1.491-.124,3.43,1.179,4.126,1.073.589,2.358-.242,3.413.265s1.261,1.668,1.768,2.658c.772,1.591,1.314,2.741,3.141,3.171,4.409,1.026,9.743-2.487,11.623-6.277,1.479-2.977,1.615-6.419,1.715-9.743v1.438c-.1,3.324-.236,6.766-1.715,9.743-1.88,3.79-7.214,7.3-11.623,6.271-1.827-.424-2.358-1.58-3.141-3.171-.483-.99-.66-2.14-1.768-2.658s-2.357.318-3.413-.259c-1.326-.713-.978-2.658-1.179-4.126-.465-3.071-3.925-4.886-4.715-7.88a4.651,4.651,0,0,0,.642.041C655.04,497.588,657.462,499.274,657.845,501.8Z" transform="translate(-653.13 -491.883)"/>
    </g>
    <path id="Path_259" data-name="Path 259" d="M254.71,789.17a17.86,17.86,0,0,0-5.181-1.833,24,24,0,0,0,3.878-.872c3.365-1.067,5.063-2.493,3.79-3.195s-5.039-.407-8.4.66a13.138,13.138,0,0,0-3.23,1.432,6.471,6.471,0,0,0-2.77-2.4c-2.988-1.644-7.008-2.47-8.976-1.851s-1.138,2.458,1.857,4.126a18.117,18.117,0,0,0,4.644,1.727,27.013,27.013,0,0,0-3.195.59c-3.66.878-5.782,2.21-4.715,2.947s4.874.666,8.54-.212a16.238,16.238,0,0,0,3.843-1.362,6.126,6.126,0,0,0,2.817,2.523c2.988,1.639,7.008,2.47,8.977,1.851S257.7,790.808,254.71,789.17Z" transform="translate(-115.943 -319.855)" fill="#15b6ac"/>
    <path id="Path_260" data-name="Path 260" d="M186.1,695.2a11.108,11.108,0,0,0-3.253-1.143,14.58,14.58,0,0,0,2.44-.548c2.1-.666,3.171-1.562,2.358-2s-3.147-.253-5.257.413a8.141,8.141,0,0,0-2.016.9,4.066,4.066,0,0,0-1.768-1.5c-1.868-1.031-4.385-1.55-5.617-1.179s-.707,1.538,1.179,2.57a11.451,11.451,0,0,0,2.947,1.079,18.227,18.227,0,0,0-2.01.354c-2.293.548-3.619,1.385-2.947,1.857s3.047.418,5.34-.13a10.146,10.146,0,0,0,2.4-.849,3.837,3.837,0,0,0,1.768,1.574c1.874,1.031,4.391,1.55,5.623,1.179S187.978,696.231,186.1,695.2Z" transform="translate(-91.246 -282.537)" fill="#15b6ac"/>
    <ellipse id="Ellipse_55" data-name="Ellipse 55" cx="19.032" cy="3.66" rx="19.032" ry="3.66" transform="translate(435.67 492.154)" fill="#15b6ac"/>
    <ellipse id="Ellipse_56" data-name="Ellipse 56" cx="2.216" cy="2.9" rx="2.216" ry="2.9" transform="translate(452.167 491.358)" fill="#3f3d56"/>
    <ellipse id="Ellipse_57" data-name="Ellipse 57" cx="2.216" cy="2.9" rx="2.216" ry="2.9" transform="translate(452.167 487.816)" fill="#3f3d56"/>
    <ellipse id="Ellipse_58" data-name="Ellipse 58" cx="2.216" cy="2.9" rx="2.216" ry="2.9" transform="translate(452.167 484.268)" fill="#3f3d56"/>
    <ellipse id="Ellipse_59" data-name="Ellipse 59" cx="2.216" cy="2.9" rx="2.216" ry="2.9" transform="translate(452.167 480.726)" fill="#3f3d56"/>
    <ellipse id="Ellipse_60" data-name="Ellipse 60" cx="2.216" cy="2.9" rx="2.216" ry="2.9" transform="translate(452.167 477.177)" fill="#3f3d56"/>
    <ellipse id="Ellipse_61" data-name="Ellipse 61" cx="2.216" cy="2.9" rx="2.216" ry="2.9" transform="translate(452.167 473.635)" fill="#3f3d56"/>
    <ellipse id="Ellipse_62" data-name="Ellipse 62" cx="2.216" cy="2.9" rx="2.216" ry="2.9" transform="translate(452.167 470.087)" fill="#3f3d56"/>
    <path id="Path_261" data-name="Path 261" d="M806.795,748.052a10.715,10.715,0,0,0,.825-1.214l-5.823-.955,6.295.047a10.644,10.644,0,0,0,.206-8.411l-8.452,4.385,7.792-5.729a10.609,10.609,0,1,0-17.523,11.876,10.823,10.823,0,0,0-1.214,1.939l7.562,3.925-8.063-2.705a10.7,10.7,0,0,0-.56,3.407,10.538,10.538,0,0,0,2.275,6.56,10.609,10.609,0,1,0,16.686,0A10.609,10.609,0,0,0,806.795,748.052Z" transform="translate(-344.119 -299.325)" fill="#15b6ac"/>
    <path id="Path_262" data-name="Path 262" d="M787.84,771.021a10.538,10.538,0,0,0,2.275,6.56,10.609,10.609,0,1,0,16.686,0C808.221,775.778,787.84,769.831,787.84,771.021Z" transform="translate(-344.119 -315.734)" opacity="0.1"/>
  </g>
</svg>
