<svg id="project" xmlns="http://www.w3.org/2000/svg" width="81.826" height="79.517" viewBox="0 0 81.826 79.517">
  <path id="Path_277" data-name="Path 277" d="M165.445,62.936h-4.433a1.2,1.2,0,1,0,0,2.4h4.433a1.2,1.2,0,0,0,0-2.4Z" transform="translate(-134.272 -54.032)" fill="#15b6ac"/>
  <path id="Path_278" data-name="Path 278" d="M230.648,65.333h17.218a1.2,1.2,0,0,0,0-2.4H230.648a1.2,1.2,0,0,0,0,2.4Z" transform="translate(-192.779 -54.032)" fill="#15b6ac"/>
  <path id="Path_279" data-name="Path 279" d="M165.445,105.989h-4.433a1.2,1.2,0,0,0,0,2.4h4.433a1.2,1.2,0,0,0,0-2.4Z" transform="translate(-134.272 -90.204)" fill="#15b6ac"/>
  <path id="Path_280" data-name="Path 280" d="M230.648,108.386h17.218a1.2,1.2,0,0,0,0-2.4H230.648a1.2,1.2,0,0,0,0,2.4Z" transform="translate(-192.779 -90.204)" fill="#15b6ac"/>
  <path id="Path_281" data-name="Path 281" d="M165.445,149.043h-4.433a1.2,1.2,0,0,0,0,2.4h4.433a1.2,1.2,0,0,0,0-2.4Z" transform="translate(-134.272 -126.378)" fill="#15b6ac"/>
  <path id="Path_282" data-name="Path 282" d="M230.648,151.44h17.218a1.2,1.2,0,0,0,0-2.4H230.648a1.2,1.2,0,0,0,0,2.4Z" transform="translate(-192.779 -126.378)" fill="#15b6ac"/>
  <path id="Path_283" data-name="Path 283" d="M188.975,372.98v-5.859a2.075,2.075,0,0,0-2.073-2.072H159.559a2.075,2.075,0,0,0-2.072,2.072v5.859a2.075,2.075,0,0,0,2.072,2.073H186.9A2.075,2.075,0,0,0,188.975,372.98Zm-2.4-.325H159.884v-5.209h26.693Z" transform="translate(-132.318 -307.863)" fill="#15b6ac"/>
  <path id="Path_284" data-name="Path 284" d="M165.445,192.1h-4.433a1.2,1.2,0,1,0,0,2.4h4.433a1.2,1.2,0,0,0,0-2.4Z" transform="translate(-134.272 -162.55)" fill="#15b6ac"/>
  <path id="Path_285" data-name="Path 285" d="M230.648,194.493h17.218a1.2,1.2,0,0,0,0-2.4H230.648a1.2,1.2,0,0,0,0,2.4Z" transform="translate(-192.779 -162.55)" fill="#15b6ac"/>
  <path id="Path_286" data-name="Path 286" d="M165.445,235.149h-4.433a1.2,1.2,0,1,0,0,2.4h4.433a1.2,1.2,0,0,0,0-2.4Z" transform="translate(-134.272 -198.723)" fill="#15b6ac"/>
  <path id="Path_287" data-name="Path 287" d="M230.648,237.546h17.218a1.2,1.2,0,0,0,0-2.4H230.648a1.2,1.2,0,0,0,0,2.4Z" transform="translate(-192.779 -198.723)" fill="#15b6ac"/>
  <path id="Path_288" data-name="Path 288" d="M192.828,451.807a1.2,1.2,0,1,0,0,2.4h18.178a1.2,1.2,0,1,0,0-2.4Z" transform="translate(-161.004 -380.755)" fill="#15b6ac"/>
  <path id="Path_289" data-name="Path 289" d="M80.627,52.146H75.512L78.59,31.31a1.2,1.2,0,0,0-2.372-.35L73.089,52.146H62.995V14.81l14.939,2.405a.308.308,0,0,1,.2.126.321.321,0,0,1,.053.25l-1.261,8.535a1.2,1.2,0,1,0,2.372.35l1.258-8.52a2.712,2.712,0,0,0-2.246-3.108l-15.32-2.467V9.934a2.715,2.715,0,0,0-2.712-2.712H39.361a1.2,1.2,0,1,0,0,2.4H60.283a.315.315,0,0,1,.315.315V52.146H54.243a3.662,3.662,0,0,0-3.415,2.37L49.638,57.7a1.254,1.254,0,0,1-1.17.812H33.357a1.254,1.254,0,0,1-1.17-.812L31,54.516a3.662,3.662,0,0,0-3.415-2.37H21.228V9.934a.315.315,0,0,1,.315-.315H34.569a1.2,1.2,0,1,0,0-2.4H21.543a2.715,2.715,0,0,0-2.712,2.712v2.448L3.511,14.849a2.712,2.712,0,0,0-2.249,3.093l5.052,34.2H1.2a1.2,1.2,0,0,0-1.2,1.2V75.483A11.269,11.269,0,0,0,11.256,86.739h5.193a1.2,1.2,0,1,0,0-2.4H11.256A8.869,8.869,0,0,1,2.4,75.483V54.543H27.583a1.254,1.254,0,0,1,1.169.812l1.189,3.183a3.662,3.662,0,0,0,3.415,2.37H48.469a3.662,3.662,0,0,0,3.415-2.37l1.189-3.183a1.254,1.254,0,0,1,1.17-.812H79.429v20.94a8.869,8.869,0,0,1-8.859,8.859H21.242a1.2,1.2,0,1,0,0,2.4H70.57A11.269,11.269,0,0,0,81.826,75.483V53.345A1.2,1.2,0,0,0,80.627,52.146Zm-77-34.569a.315.315,0,0,1,.261-.361L18.831,14.81V52.146H8.737Z" transform="translate(0 -7.222)" fill="#15b6ac"/>
</svg>
