<svg id="guarantee" xmlns="http://www.w3.org/2000/svg" width="79.716" height="79.717" viewBox="0 0 79.716 79.717">
  <path id="Path_269" data-name="Path 269" d="M78.431,0h-72A1.287,1.287,0,0,0,5.143,1.286V5.143H1.286A1.287,1.287,0,0,0,0,6.429v51.43a1.285,1.285,0,0,0,1.286,1.286h25.1a14.236,14.236,0,0,0,4.473,3.582v15.7a1.286,1.286,0,0,0,2.195.909l4.234-4.234,4.234,4.234a1.287,1.287,0,0,0,.909.377,1.266,1.266,0,0,0,.493-.1,1.287,1.287,0,0,0,.793-1.188v-15.7a14.239,14.239,0,0,0,4.473-3.582h25.1a1.285,1.285,0,0,0,1.286-1.286V54h3.857a1.285,1.285,0,0,0,1.286-1.286V1.286A1.286,1.286,0,0,0,78.431,0ZM41.144,75.327,38.2,72.379a1.284,1.284,0,0,0-1.818,0l-2.948,2.948V63.74a13.862,13.862,0,0,0,7.714,0ZM37.287,61.716A11.572,11.572,0,1,1,48.858,50.144,11.585,11.585,0,0,1,37.287,61.716ZM23.209,51.43H15.338a9.022,9.022,0,0,0-7.623-7.623V20.481a9.024,9.024,0,0,0,7.623-7.623h43.9a9.023,9.023,0,0,0,7.623,7.623V43.808a9.02,9.02,0,0,0-7.623,7.623H51.366c.037-.426.064-.853.064-1.287a14.143,14.143,0,0,0-28.286,0c0,.434.027.861.066,1.286ZM72,56.573H49.869A14.007,14.007,0,0,0,50.882,54H60.43a1.285,1.285,0,0,0,1.286-1.286,6.436,6.436,0,0,1,6.429-6.429A1.285,1.285,0,0,0,69.43,45V19.286A1.286,1.286,0,0,0,68.145,18a6.436,6.436,0,0,1-6.429-6.429,1.286,1.286,0,0,0-1.286-1.286H14.143a1.287,1.287,0,0,0-1.286,1.286A6.436,6.436,0,0,1,6.429,18a1.287,1.287,0,0,0-1.286,1.286V45a1.285,1.285,0,0,0,1.286,1.286,6.436,6.436,0,0,1,6.429,6.429A1.285,1.285,0,0,0,14.143,54h9.548A14,14,0,0,0,24.7,56.573H2.572V7.715H72Zm5.143-5.143H74.573v-45a1.286,1.286,0,0,0-1.286-1.286H7.715V2.572h69.43Zm0,0" fill="#15b6ac"/>
  <path id="Path_270" data-name="Path 270" d="M185,256a9.011,9.011,0,0,0-9,9h2.572A6.436,6.436,0,0,1,185,258.572Zm0,0" transform="translate(-147.714 -214.856)" fill="#15b6ac"/>
  <path id="Path_271" data-name="Path 271" d="M238.429,312A6.436,6.436,0,0,1,232,318.429V321a9.011,9.011,0,0,0,9-9Zm0,0" transform="translate(-194.713 -261.856)" fill="#15b6ac"/>
  <path id="Path_272" data-name="Path 272" d="M150.572,102.429V97.286A1.286,1.286,0,0,0,149.287,96h-36A1.287,1.287,0,0,0,112,97.286v5.143a1.287,1.287,0,0,0,1.286,1.286h36A1.286,1.286,0,0,0,150.572,102.429ZM148,101.143H114.572V98.572H148Zm0,0" transform="translate(-94 -80.571)" fill="#15b6ac"/>
  <path id="Path_273" data-name="Path 273" d="M64,160H74.286v2.572H64Zm0,0" transform="translate(-53.714 -134.285)" fill="#15b6ac"/>
  <path id="Path_274" data-name="Path 274" d="M64,192H74.286v2.571H64Zm0,0" transform="translate(-53.714 -161.142)" fill="#15b6ac"/>
  <path id="Path_275" data-name="Path 275" d="M144,192h41.144v2.571H144Zm0,0" transform="translate(-120.857 -161.142)" fill="#15b6ac"/>
  <path id="Path_276" data-name="Path 276" d="M144,160h41.144v2.572H144Zm0,0" transform="translate(-120.857 -134.285)" fill="#15b6ac"/>
</svg>
