<svg id="business-and-finance" xmlns="http://www.w3.org/2000/svg" width="82.626" height="78.55" viewBox="0 0 82.626 78.55">
  <path id="Path_263" data-name="Path 263" d="M82.476,141.378a7.034,7.034,0,0,0-8.457-5.426l-8.612,1.972V134.4a34.02,34.02,0,0,0,4.8-5.693A33.375,33.375,0,0,0,74.929,117.6a34.044,34.044,0,0,0,.065-14.451,1.614,1.614,0,0,0-3.156.676,30.776,30.776,0,0,1-.059,13.07,30.16,30.16,0,0,1-4.263,10.04,28.73,28.73,0,0,1-2.109,2.783V111.83a1.614,1.614,0,0,0-1.614-1.614H51.027V92.983a1.614,1.614,0,0,0-1.608-1.614l-14.38-.049h-.005a1.614,1.614,0,0,0-1.614,1.614V101.9H20.652a1.614,1.614,0,0,0-1.614,1.614v15.981h-3.6V117.3a1.614,1.614,0,0,0-1.614-1.613H12.174a30.543,30.543,0,0,1,1.318-15.828c.3-.83.642-1.657,1.015-2.457a1.614,1.614,0,1,0-2.926-1.362c-.413.886-.791,1.8-1.123,2.719A33.723,33.723,0,0,0,8.9,115.688H1.614A1.614,1.614,0,0,0,0,117.3v28.366a1.614,1.614,0,0,0,1.614,1.614H13.829a1.614,1.614,0,0,0,1.614-1.614v-1.534h6.071L46.1,153.779a19.424,19.424,0,0,0,11.943.747l19.274-4.9a7.021,7.021,0,0,0,5.155-8.249Zm-20.3-27.934v25.219l-4.314.988c-.464.106-.933.19-1.4.255a16.381,16.381,0,0,1-5.411-.157l-.023-.005V137.3a7.474,7.474,0,0,0,.993-6.287,7.248,7.248,0,0,0-.76-1.692q-.111-.18-.231-.352l0-.005V113.443H62.18ZM36.648,94.553l11.152.037V126.4l-6.233-2.58-4.92-2.037ZM22.266,105.126H33.418v15.318l-2-.828a1.611,1.611,0,0,0-.617-.123H22.266ZM12.215,144.055H3.227V118.915h8.988ZM76.527,146.5l-19.274,4.9a16.219,16.219,0,0,1-9.97-.623l-24.874-9.757a1.611,1.611,0,0,0-.589-.111H15.443V122.721H30.478l10.442,4.322,5.714,2.365a4.037,4.037,0,0,1,2.16,5.229,4.614,4.614,0,0,1-.646,1.134,4.16,4.16,0,0,1-4.23,1.459l-.038-.009c-.093-.023-.186-.05-.278-.081l-10.858-4.174-.135-.052a1.614,1.614,0,0,0-1.158,3.013s6.122,2.354,10.791,4.154c.094.037.187.071.281.1l3.585,1.379a29.645,29.645,0,0,0,3.29,1.12,19.58,19.58,0,0,0,9.189.115l5.567-1.274.017-.005L74.739,139.1a3.807,3.807,0,0,1,1.787,7.4Zm0,0" transform="translate(0 -76.583)" fill="#15b6ac"/>
  <path id="Path_264" data-name="Path 264" d="M119.491,11.478a1.607,1.607,0,0,0,1.081-.416,30.325,30.325,0,0,1,22.407-7.769,30.269,30.269,0,0,1,8.8,1.916,1.614,1.614,0,0,0,1.149-3.016A33.488,33.488,0,0,0,143.191.072a33.555,33.555,0,0,0-24.782,8.595,1.614,1.614,0,0,0,1.082,2.812Zm0,0" transform="translate(-98.854 0)" fill="#15b6ac"/>
  <path id="Path_265" data-name="Path 265" d="M352,48.355a1.615,1.615,0,0,0,2.277-.159l13.277-15.284a1.614,1.614,0,1,0-2.436-2.117L351.842,46.079A1.613,1.613,0,0,0,352,48.355Zm0,0" transform="translate(-294.73 -25.36)" fill="#15b6ac"/>
  <path id="Path_266" data-name="Path 266" d="M407.563,99.738a4.051,4.051,0,1,0,4.051,4.051A4.056,4.056,0,0,0,407.563,99.738Zm0,4.875a.824.824,0,1,1,.824-.824A.825.825,0,0,1,407.563,104.614Zm0,0" transform="translate(-338.393 -83.643)" fill="#15b6ac"/>
  <path id="Path_267" data-name="Path 267" d="M352.032,35.369a4.051,4.051,0,1,0-4.051-4.052A4.056,4.056,0,0,0,352.032,35.369Zm0-4.876a.824.824,0,1,1-.824.825A.825.825,0,0,1,352.032,30.493Zm0,0" transform="translate(-291.824 -22.866)" fill="#15b6ac"/>
  <path id="Path_268" data-name="Path 268" d="M91.7,83.053a1.613,1.613,0,1,0,.594-1.959A1.627,1.627,0,0,0,91.7,83.053Zm0,0" transform="translate(-76.802 -67.782)" fill="#15b6ac"/>
</svg>
