<svg xmlns="http://www.w3.org/2000/svg" xmlns:xlink="http://www.w3.org/1999/xlink" width="674.568" height="374.626" viewBox="0 0 674.568 374.626">
  <defs>
    <linearGradient id="linear-gradient" x1="0.5" y1="1" x2="0.5" y2="-0.001" gradientUnits="objectBoundingBox">
      <stop offset="0" stop-color="gray" stop-opacity="0.251"/>
      <stop offset="0.54" stop-color="gray" stop-opacity="0.122"/>
      <stop offset="1" stop-color="gray" stop-opacity="0.102"/>
    </linearGradient>
  </defs>
  <g id="undraw_programming_2svr" transform="translate(2.352 17.172)">
    <path id="Path_3" data-name="Path 3" d="M702.217,456.807q-1.127,2.429-2.248,4.794-1.749,3.673-3.453,7.2c-.505,1.043-1.011,2.066-1.5,3.09-5.571,11.382-10.773,21.45-15.192,29.729a47.427,47.427,0,0,1-41.338,25.071l-98.243,1.069H539.2l-8.422.091-7.2.078-22.091.24h-.894l-11.246.123H489l-69.318.751-61.874.648-7.2.078-44.7.486h-.052l-28.99.311h-.311l-91.668.991-27.423.3a57.056,57.056,0,0,1-17.278-2.475,55.967,55.967,0,0,1-25.324-16.034A129.528,129.528,0,0,1,88.744,468.8q-1.25-3.557-2.332-7.2c-19.96-67.471,4.373-154.52,48.166-212.773q2.753-3.654,5.6-7.126l.045-.052c13.468-16.533,28.569-30.344,44.655-40.165,28.5-17.433,60.086-22.344,91.149-7.709,26.282,12.386,50.822,18.21,74.61,19.791,2.4.156,4.807.272,7.2.343,54.566,1.717,105.706-17.945,165.76-30.636,2.39-.505,4.787-1,7.2-1.477,42.841-8.525,90.365-13.021,146.882-3.57a122.493,122.493,0,0,1,17.336,4.146q3.738,1.2,7.2,2.591c26.975,10.974,41.688,31.251,47.939,56.659q.888,3.537,1.535,7.2C762.776,309.938,730.314,396.63,702.217,456.807Z" transform="translate(-81.703 -190.117)" fill="#15b6ac" opacity="0.12"/>
    <g id="Group_1" data-name="Group 1" transform="translate(6.903 7.64)" opacity="0.1">
      <path id="Path_5" data-name="Path 5" d="M781.747,286.178H164.6q2.753-3.654,5.6-7.126V279H780.211Q781.1,282.518,781.747,286.178Z" transform="translate(-116.434 -219.128)" fill="#15b6ac"/>
      <path id="Path_6" data-name="Path 6" d="M1036.9,190.087V466.71h-2.248q-1.749,3.673-3.453,7.2c-.505,1.043-1.011,2.067-1.5,3.09V187.47Q1033.438,188.675,1036.9,190.087Z" transform="translate(-421.098 -186.893)" fill="#15b6ac"/>
      <path id="Path_7" data-name="Path 7" d="M772.294,186.58v346.1l-7.2.078v-344.7C767.481,187.552,769.877,187.053,772.294,186.58Z" transform="translate(-327.91 -186.58)" fill="#15b6ac"/>
      <path id="Path_8" data-name="Path 8" d="M505.307,235.963V551.831l-7.2.078V235.62C500.513,235.775,502.917,235.866,505.307,235.963Z" transform="translate(-233.887 -203.851)" fill="#15b6ac"/>
      <path id="Path_9" data-name="Path 9" d="M703.808,618.52q-1.749,3.673-3.453,7.2H92.582q-1.25-3.557-2.332-7.2Z" transform="translate(-90.25 -338.697)" fill="#15b6ac"/>
    </g>
    <rect id="Rectangle_3" data-name="Rectangle 3" width="12.309" height="37.354" transform="translate(136.916 170.996)" fill="#3f3d56"/>
    <rect id="Rectangle_4" data-name="Rectangle 4" width="12.309" height="39.518" transform="translate(468.169 169.053)" fill="#fff"/>
    <path id="Path_10" data-name="Path 10" d="M596.506,523.613v8.422l-98.418.907-1.049.02-37.406.343-.894.013-11.369.1h-.337l-69.3.641-113.765,1.056h-.1l-28.925.272-.311.006L106.1,536.57v-9.717l30.221-18.139,60.637-.505,1.3-.006.428-.007,1.3-.019,29.113-.24,1.3-.007.415-.006,1.3-.006,9.335-.078.246-.006,23.03-.194h.188l179.707-1.516,4.4-.032h.441l3.356-.032,24.391-.2,1.3-.019,1.2-.013h.622l7.586-.058,1.5-.019,2.015-.013,6.316-.058,10.022-.084,1.3-.013,2.254-.013h.421l48.4-.415Z" transform="translate(-37.53 -179.115)" fill="#65617d"/>
    <path id="Path_11" data-name="Path 11" d="M596.506,523.613v8.422l-98.418.907-1.049.02-37.406.343-.894.013-11.369.1h-.337l-69.3.641-113.765,1.056h-.1l-28.925.272-.311.006L106.1,536.57v-9.717l30.221-18.139,60.637-.505,1.3-.006.428-.007,1.3-.019,29.113-.24,1.3-.007.415-.006,1.3-.006,9.335-.078.246-.006,23.03-.194h.188l179.707-1.516,4.4-.032h.441l3.356-.032,24.391-.2,1.3-.019,1.2-.013h.622l7.586-.058,1.5-.019,2.015-.013,6.316-.058,10.022-.084,1.3-.013,2.254-.013h.421l48.4-.415Z" transform="translate(-37.53 -179.115)" opacity="0.2"/>
    <path id="Path_12" data-name="Path 12" d="M358.828,656.57v15.865a3.971,3.971,0,0,1-2.267,3.589,3.887,3.887,0,0,1-1.62.389l-22.609.479a3.888,3.888,0,0,1-1.749-.369,3.965,3.965,0,0,1-2.313-3.609V656.57Z" transform="translate(-167.171 -344.457)" fill="#3f3d56"/>
    <path id="Path_13" data-name="Path 13" d="M358.828,656.57v15.865a3.971,3.971,0,0,1-2.267,3.589,3.887,3.887,0,0,1-1.62.389l-22.609.479a3.888,3.888,0,0,1-1.749-.369,3.965,3.965,0,0,1-2.313-3.609V656.57Z" transform="translate(-167.171 -344.457)" opacity="0.1"/>
    <path id="Path_14" data-name="Path 14" d="M360.828,656.57v15.865a3.971,3.971,0,0,1-2.267,3.589,3.886,3.886,0,0,1-1.62.389l-22.609.479a3.888,3.888,0,0,1-1.749-.369,3.965,3.965,0,0,1-2.313-3.609V656.57Z" transform="translate(-167.875 -344.457)" fill="#3f3d56"/>
    <rect id="Rectangle_5" data-name="Rectangle 5" width="30.558" height="20.407" transform="translate(440.961 312.113)" fill="#3f3d56"/>
    <rect id="Rectangle_6" data-name="Rectangle 6" width="30.558" height="20.407" transform="translate(440.961 312.113)" opacity="0.1"/>
    <rect id="Rectangle_7" data-name="Rectangle 7" width="30.558" height="20.407" transform="translate(439.665 312.113)" fill="#3f3d56"/>
    <path id="Path_15" data-name="Path 15" d="M223.909,265.82v3.712l-12.309-.317V265.82Z" transform="translate(-74.684 -94.83)" opacity="0.1"/>
    <path id="Path_16" data-name="Path 16" d="M358.343,271.214l-14.79,106.244a2.786,2.786,0,0,1-2.831,2.4L222.3,376.79l-2.248-.058a2.786,2.786,0,0,1-2.7-3.155l16.6-111.219a2.786,2.786,0,0,1,2.941-2.352l118.851,8.046a2.779,2.779,0,0,1,2.591,3.161Z" transform="translate(-128.102 -204.796)" fill="#65617d"/>
    <path id="Path_17" data-name="Path 17" d="M169.123,99.16,156.6,197.2l108.835,3.453,13.384-94.583Z" transform="translate(-55.315 -36.137)" fill="#15b6ac"/>
    <rect id="Rectangle_8" data-name="Rectangle 8" width="132.591" height="112.288" rx="5.33" transform="translate(248.99 61.507)" fill="#65617d"/>
    <rect id="Rectangle_9" data-name="Rectangle 9" width="120.496" height="93.501" transform="translate(255.248 69.067)" fill="#15b6ac"/>
    <path id="Path_18" data-name="Path 18" d="M735.239,262.82v2.455l-12.309.253V262.82Z" transform="translate(-254.76 -93.774)" opacity="0.1"/>
    <path id="Path_19" data-name="Path 19" d="M833.243,370.676A2,2,0,0,1,831.3,372.8l-121.273,2.507A2,2,0,0,1,708,373.5L697.575,265.132a2,2,0,0,1,1.892-2.183l120.353-5.986,1.3-.065a1.989,1.989,0,0,1,2.086,1.814Z" transform="translate(-297.227 -203.703)" fill="#fff"/>
    <path id="Path_20" data-name="Path 20" d="M628.93,100.223l109.917-5.4,9.283,98.47-109.049,2.591Z" transform="translate(-221.656 -34.609)" fill="#15b6ac"/>
    <path id="Path_21" data-name="Path 21" d="M899.7,370.676a2,2,0,0,1-1.944,2.125L886.28,256.963l1.3-.065a1.989,1.989,0,0,1,2.086,1.814Z" transform="translate(-363.687 -203.703)" opacity="0.1"/>
    <path id="Path_22" data-name="Path 22" d="M236.921,260,222.3,376.786l-2.248-.058a2.786,2.786,0,0,1-2.7-3.155l16.6-111.219A2.786,2.786,0,0,1,236.921,260Z" transform="translate(-128.102 -204.792)" opacity="0.1"/>
    <rect id="Rectangle_10" data-name="Rectangle 10" width="12.309" height="11.065" transform="translate(136.916 197.285)" opacity="0.1"/>
    <path id="Path_23" data-name="Path 23" d="M281.488,483.65v3.22l-30.558.816V483.65Z" transform="translate(-88.535 -171.544)" opacity="0.1"/>
    <path id="Path_24" data-name="Path 24" d="M390.432,483.879V592.844a2.591,2.591,0,0,1-2.494,2.559l-124.156,3.3h-.032a2.591,2.591,0,0,1-2.559-2.559V483.879a2.591,2.591,0,0,1,2.559-2.559H387.873A2.591,2.591,0,0,1,390.432,483.879Z" transform="translate(-143.547 -282.739)" fill="#65617d"/>
    <path id="Path_25" data-name="Path 25" d="M263.781,481.32V598.706h-.032a2.591,2.591,0,0,1-2.559-2.559V483.879a2.591,2.591,0,0,1,2.559-2.559Z" transform="translate(-143.547 -282.739)" opacity="0.1"/>
    <path id="Path_26" data-name="Path 26" d="M194.6,319.15H309.589v96.04L194.6,417.782Z" transform="translate(-68.698 -113.611)" fill="#d4dfec"/>
    <rect id="Rectangle_11" data-name="Rectangle 11" width="12.309" height="11.285" transform="translate(468.169 197.285)" opacity="0.1"/>
    <path id="Path_27" data-name="Path 27" d="M709.488,483.65V487.8l-30.558-.816V483.65Z" transform="translate(-239.265 -171.544)" opacity="0.1"/>
    <path id="Path_28" data-name="Path 28" d="M797.418,483.879V596.147a2.591,2.591,0,0,1-2.591,2.559h0l-124.182-3.3a2.591,2.591,0,0,1-2.494-2.559V483.879a2.591,2.591,0,0,1,2.559-2.559H794.833A2.591,2.591,0,0,1,797.418,483.879Z" transform="translate(-286.867 -282.739)" fill="#fff"/>
    <path id="Path_29" data-name="Path 29" d="M866.281,483.879V596.147a2.591,2.591,0,0,1-2.591,2.559h0V481.32h0a2.591,2.591,0,0,1,2.591,2.559Z" transform="translate(-355.731 -282.739)" opacity="0.1"/>
    <path id="Path_30" data-name="Path 30" d="M713.089,319.15H598.1v96.04l114.989,2.591Z" transform="translate(-210.799 -113.611)" fill="#d4dfec"/>
    <path id="Path_31" data-name="Path 31" d="M592.932,483.879V592.844a2.591,2.591,0,0,1-2.494,2.559l-124.156,3.3h0a2.591,2.591,0,0,1-2.591-2.559V483.879a2.591,2.591,0,0,1,2.559-2.559H590.373A2.591,2.591,0,0,1,592.932,483.879Z" transform="translate(-214.862 -282.739)" fill="#65617d"/>
    <path id="Path_32" data-name="Path 32" d="M397.1,319.15H512.089v96.04L397.1,417.782Z" transform="translate(-140.012 -113.611)" fill="#d4dfec"/>
    <path id="Path_33" data-name="Path 33" d="M596.506,533.65v8.422l-98.418.907-1.049.019-37.406.343-.894.013-11.369.1h-.337l-69.3.641-113.765,1.056h-.1l-28.925.272-.311.006L106.1,546.607v-9.717l131.192-.862h.311l26.554-.181h.123l183.387-1.211h.188l.11-.007h.3l3.1-.019h.946l48.257-.324,2.85-.013.635-.006Z" transform="translate(-37.53 -189.152)" opacity="0.1"/>
    <circle id="Ellipse_1" data-name="Ellipse 1" cx="33.253" cy="33.253" r="33.253" transform="translate(282.243 141.844)" fill="#fbbebe"/>
    <path id="Path_34" data-name="Path 34" d="M383.74,592.284a.805.805,0,0,1,.065-.227c.648-2.326,1.8-6.258,2.663-9.4.11-.389.214-.771.311-1.134.952-3.544,2.805-11.842,3.835-17.018.363-1.82.648-3.239.706-3.952.13-1.095,2.08-5.779,4.289-11.162,1.548-3.783,3.239-7.916,4.476-11.4a39.764,39.764,0,0,0,1.9-6.381,3.305,3.305,0,0,0,0-1.38,9.515,9.515,0,0,1-.311-2.267h0c-.149-4.016,1.049-10.365,2.9-13.028,2.267-3.239,3.887-15.328,3.887-15.328s3.356.486,3.887-2.287a3.989,3.989,0,0,0,.065-.907,4.813,4.813,0,0,0-.058-.719c-.577-4.042,9.536-8.344,15.224-9.27a12.744,12.744,0,0,1,1.943-.181,17.643,17.643,0,0,0,4.049-.933q.907-.279,1.943-.648c2.384-.8,5.234-1.866,8.26-3.032,11.376-4.412,25.149-10.365,25.149-10.365.1-.46.207-.9.33-1.335a17.952,17.952,0,0,1,10.592-12.263h0v-1.3c0-2.235-.1-4.535-.194-6.828,0-.447-.039-.894-.065-1.341v-.732c0-.453-.045-.907-.071-1.354l-.117-.091a10.631,10.631,0,0,1-2.527-2.721,9.889,9.889,0,0,1-.92-1.943c-.81-2.2-1-4.645-1.542-6.964l-.117-.479a54.406,54.406,0,0,0-2.591-6.854c-1.432-3.511-2.533-7.126-3.628-10.786q-1-3.323-2.015-6.66l-1.024-3.395c-.194-.648-.389-1.3-.538-1.944h0a8.586,8.586,0,0,1-.168-.907h0a6.477,6.477,0,0,1,.155-2.986,20.787,20.787,0,0,1,.855-1.943,5.108,5.108,0,0,0,.324-.894h0a1.942,1.942,0,0,0,.052-.207,3.652,3.652,0,0,0,.071-.7,11.964,11.964,0,0,0-.337-2.52.045.045,0,0,1,0-.032,1.66,1.66,0,0,0-.032-.175,16.51,16.51,0,0,1-.233-1.943,18.432,18.432,0,0,1,2.248-10.087l.123-.233a16.327,16.327,0,0,1,1.192-1.8h0a9.072,9.072,0,0,1,.648-.79,2.587,2.587,0,0,1-3.6-.933,2.481,2.481,0,0,1-.149-.292c-.032-.078-.058-.162-.084-.246a5.293,5.293,0,0,1,1.373-4.567,11.978,11.978,0,0,1,3.718-3.045h0a2.5,2.5,0,0,1,.259-.136,11.09,11.09,0,0,1,1.71-.687h0a9.758,9.758,0,0,1,1.056-.285l-2.4-.22-.972-.091a9.387,9.387,0,0,1,8.422-7.068h.7a7.6,7.6,0,0,1,1.017.084,2.876,2.876,0,0,1-1.717-2.805,9.335,9.335,0,0,0,5.953,1.982h.246a19.461,19.461,0,0,1-.22-2.118h0a21.479,21.479,0,0,1,0-2.889,5.468,5.468,0,0,0,4.392,1.464l-1.347-1.879a6.148,6.148,0,0,0,4.25,1.328l.311-.032a4.547,4.547,0,0,0,.771-.149h.058c-.123-.156-.233-.318-.343-.486l-.039-.078a6.271,6.271,0,0,1-.648-1.354,4.281,4.281,0,0,1-.155-.564h0a5.668,5.668,0,0,1,.292-3.531c2.092,1.749,4.386,4.14,7.126,2.332s2.831-5.124,7.126-4.787a6.608,6.608,0,0,1,5.448,3.965,4.373,4.373,0,0,1,4.969-1.134,4.437,4.437,0,0,1,2.514,4.464c1.782-.447,3.7-.888,5.409-.214s2.812,2.857,1.84,4.315a.922.922,0,0,1-.091.13c-.8,1.03-2.559,1.594-2.371,2.889l.272.194.842.609q4.956,3.576,9.653,7.515c1.607,1.347,3.317,2.967,3.427,5.072a5.6,5.6,0,0,1-.156,1.535h0c-.1.505-.246,1.011-.356,1.516a12.64,12.64,0,0,0-.22,3.919h0c.045.382.1.758.175,1.14.991,5.008,4.995,9.141,5.39,14.252v.363a11.535,11.535,0,0,1-.045,1.639c-.3,3.109-1.736,6.1-2.9,9.07-.071.181-.142.363-.207.544a90.252,90.252,0,0,0-4.535,18.243,64.95,64.95,0,0,1-1.3,6.537,17.315,17.315,0,0,1-3.3,6.757,10.506,10.506,0,0,1-2.177,1.943,12.082,12.082,0,0,1-1.717.913v.039c.071.4.129.79.2,1.186.039.207.071.415.11.648h0a.091.091,0,0,0,0,.039c.544,3.064,1.166,6.064,1.82,8.914l.33,1.419c8.163,2.948,9.128,8.985,9.186,11.3a6.24,6.24,0,0,1,0,.926s12.309.324,17.167,3.887a13.174,13.174,0,0,0,2.922,1.49A53.747,53.747,0,0,0,564.8,475.9c1.043.272,2.131.538,3.239.8,1.944.447,4,.881,5.992,1.3,5.306,1.069,10.3,1.943,12.833,2.591,6.044,1.529,19.869,14.783,19.869,14.783s1.62,13.371,3.239,15.321,4.535,8.8,4.535,8.8l10.715,19.053,4.535,8.014h2.915a4.955,4.955,0,0,1,2.08,1.36c.771.687,1.626,1.542,2.378,2.319l1.244,1.328.777.862s4.71.117,5.986,3.842c3.835-.11,8.545.142,11.842,1.62a9.151,9.151,0,0,1,1.3.7,5.623,5.623,0,0,1,2.675,3.667,5.4,5.4,0,0,1,.117.933c0,.369,0,.739,0,1.1-.233,4.9-3.427,8.985-6.362,11.732l.207.369s-.1.233-.285.648c-.052.123-.117.259-.188.415h0c-.382.816-.991,2.041-1.788,3.472a41.018,41.018,0,0,1-6.2,8.532l-.188.194L608.86,590l-.11-.13-7.256-8.655-3.608-4.3-.11-.136-.1,1.03-.35,3.433-.842,8.3-.045.414v.11l-.1.959.071-.959h-.188l-69.318.648-113.772,1.257v.544h-.091v-.544l-28.99.311Z" transform="translate(-186.706 -235.782)" fill="url(#linear-gradient)"/>
    <path id="Path_35" data-name="Path 35" d="M586.019,511.321s-64.459,7.774-58.3,0c2.229-2.812,2.844-11.143,2.721-20.633-.039-2.883-.143-5.869-.292-8.843-.713-14.252-2.429-28.18-2.429-28.18s56.361-26.561,49.883-5.507c-2.591,8.506-1.743,20.452.227,31.666.577,3.272,1.244,6.478,1.944,9.523a223.311,223.311,0,0,0,6.251,21.974Z" transform="translate(-237.264 -268.202)" fill="#fbbebe"/>
    <path id="Path_36" data-name="Path 36" d="M586.019,537.288s-64.459,7.774-58.3,0c2.229-2.812,2.844-11.143,2.721-20.633,9.828-4.2,22.331-1.069,22.331-1.069,13.164-2.624,21.605-2.112,27-.272a223.3,223.3,0,0,0,6.251,21.974Z" transform="translate(-237.264 -294.169)" opacity="0.1"/>
    <path id="Path_37" data-name="Path 37" d="M413.264,651.59v-.544l113.772-1.237,69.318-.648h.194l-.071.959.1-.959h.123v-.11l.888-8.713.337-3.3.1-1.03.091-.862,4-13.352,4-13.332,3.369-11.227,5.144-17.154s-2.915-6.8-4.535-8.746-3.239-15.224-3.239-15.224-13.825-13.17-19.869-14.686c-2.533-.648-7.534-1.509-12.846-2.591-1.989-.4-4.029-.829-5.992-1.3-1.108-.253-2.2-.518-3.239-.784a56.931,56.931,0,0,1-5.992-1.853,13.41,13.41,0,0,1-2.915-1.483c-4.761-3.492-16.695-3.887-17.154-3.887h0a.3.3,0,0,1,0-.045v-.058a6.623,6.623,0,0,0,0-.816,5.213,5.213,0,0,0-.058-.907.819.819,0,0,0-.045-.324c-.032-.233-.071-.479-.13-.738a3.235,3.235,0,0,0-.078-.343,11.152,11.152,0,0,0-.81-2.261c-.045-.1-.1-.214-.155-.317a11.828,11.828,0,0,0-1.1-1.7c-.084-.11-.175-.227-.272-.337a12.687,12.687,0,0,0-1.762-1.71c-.175-.136-.356-.279-.544-.408a3.02,3.02,0,0,0-.33-.233l-.577-.376-.538-.311c-.473-.259-.972-.512-1.516-.751-.168-.078-.35-.149-.531-.22s-.466-.181-.706-.272h-.039l-.486-.194c-.369-.123-.745-.233-1.14-.343l-.6-.155-.648-.149-.648-.136c-.648-.13-1.341-.246-2.067-.337l-.739-.091-.758-.078-.784-.065-1.114-.065-1.3-.045a80.785,80.785,0,0,0-17.006,1.809,46.816,46.816,0,0,0-11.822-1.09h-.564l-.648.039h-.415l-.836.078a6.21,6.21,0,0,0-.842.1c-.279.039-.57.071-.849.117l-.428.071c-.421.071-.849.149-1.3.24q-.214.039-.428.1c-.564.123-1.127.272-1.684.44-.279.078-.557.168-.836.266-.143.039-.279.091-.415.142l-.415.149-.408.162-.486.194c-.246.1-.486.214-.726.33-.136.058-.272.123-.4.194s-.266.13-.389.2a17.972,17.972,0,0,0-4.023,2.837l-.33.317-.324.33c-.11.11-.214.227-.317.343a15.438,15.438,0,0,0-1.179,1.458c-.1.136-.2.272-.3.415a17.31,17.31,0,0,0-1.114,1.892c-.084.156-.162.317-.24.473a21.175,21.175,0,0,0-1.3,3.4q-.181.648-.33,1.3s-13.715,6.051-25.09,10.43c-3.025,1.166-5.876,2.222-8.26,3.019-.693.233-1.341.447-1.943.648a17.3,17.3,0,0,1-4.049.933,12.737,12.737,0,0,0-1.944.181c-5.228.849-14.187,4.535-15.166,8.234a2.392,2.392,0,0,0-.065.907s0,.045,0,.071c.648,4.535-3.887,3.887-3.887,3.887s-1.62,11.985-3.887,15.224c-1.639,2.332-2.76,7.534-2.9,11.46h0a12.7,12.7,0,0,0,.285,3.647v.091c.259.868-.363,3.239-1.419,6.277-1.147,3.336-2.818,7.482-4.425,11.4-2.423,5.908-4.7,11.272-4.846,12.451-.058.525-.227,1.464-.46,2.676-.946,4.936-3.045,14.336-4.081,18.139-.771,2.837-1.892,6.724-2.663,9.393a.911.911,0,0,1-.065.227l29.042-.285v.544h.091Z" transform="translate(-186.857 -294.861)" fill="#15b6ac"/>
    <path id="Path_38" data-name="Path 38" d="M445.44,607.57s36.926,19.111,50.207,16.844Z" transform="translate(-208.435 -327.201)" opacity="0.1"/>
    <path id="Path_39" data-name="Path 39" d="M561.44,595.57s35.954,11.661,47.939,13.28S561.44,595.57,561.44,595.57Z" transform="translate(-249.287 -322.975)" opacity="0.1"/>
    <path id="Path_40" data-name="Path 40" d="M585.247,530.65c-18.787,3.459-54.158,2.714-69.447,2.19,5.6-20.083,32.929-13.255,32.929-13.255C582.552,512.835,585.143,526.841,585.247,530.65Z" transform="translate(-233.214 -295.577)" opacity="0.1"/>
    <path id="Path_41" data-name="Path 41" d="M585.247,528.65c-18.787,3.459-54.158,2.714-69.447,2.19,5.6-20.083,32.929-13.255,32.929-13.255C582.552,510.835,585.143,524.841,585.247,528.65Z" transform="translate(-233.214 -294.873)" fill="#15b6ac"/>
    <path id="Path_42" data-name="Path 42" d="M776.94,672.006s22.13-3.4,22.564,6.316-11.285,16.507-11.285,16.507Z" transform="translate(-325.18 -349.691)" fill="#fbbebe"/>
    <path id="Path_43" data-name="Path 43" d="M578.028,479.824a30.5,30.5,0,0,1-2.915,1.127c-6.984,2.41-14.026,4.839-21.378,5.72s-15.068.1-21.482-3.563a18.646,18.646,0,0,1-1.943-1.263c-.713-14.252-2.429-28.181-2.429-28.181s56.361-26.561,49.883-5.507C575.184,456.664,576.059,468.61,578.028,479.824Z" transform="translate(-237.468 -268.202)" opacity="0.1"/>
    <path id="Path_44" data-name="Path 44" d="M536.814,360.266a6.135,6.135,0,0,1-5.39-1.134L532.771,361a5.488,5.488,0,0,1-4.392-1.458,22.089,22.089,0,0,0,.207,5.021,9.407,9.407,0,0,1-6.193-1.943,2.863,2.863,0,0,0,1.71,2.792A9.29,9.29,0,0,0,514,372.355l3.382.311a11.966,11.966,0,0,0-6.763,4.127c-1.036,1.3-1.827,2.954-1.373,4.535s2.643,2.591,3.835,1.464a18.1,18.1,0,0,0-3.952,14.764,9.374,9.374,0,0,1,.3,3.408A28.921,28.921,0,0,1,508.2,404c-.648,1.892-.032,3.945.544,5.83l3.038,9.989c1.1,3.608,2.2,7.223,3.634,10.715a53.156,53.156,0,0,1,2.591,6.809c.816,3.135.849,6.569,2.591,9.309a12.913,12.913,0,0,0,4.651,4.1c6.407,3.667,14.149,4.444,21.482,3.563s14.369-3.31,21.346-5.72a20.084,20.084,0,0,0,4.431-1.943c4.826-3.161,5.9-9.627,6.8-15.321a87,87,0,0,1,4.723-18.657c1.412-3.557,3.239-7.165,2.928-10.974-.4-5.06-4.4-9.16-5.39-14.136a12.308,12.308,0,0,1,.045-5.034,11.44,11.44,0,0,0,.512-3.045c-.11-2.086-1.82-3.693-3.427-5.034q-5.228-4.367-10.793-8.253c-.188-1.3,1.574-1.853,2.371-2.876,1.127-1.445-.039-3.738-1.749-4.412s-3.628-.233-5.409.214a4.269,4.269,0,0,0-7.482-3.31,6.608,6.608,0,0,0-5.455-3.939c-4.3-.337-4.379,2.948-7.126,4.755s-5.014-.577-7.126-2.313A6.012,6.012,0,0,0,536.814,360.266Z" transform="translate(-230.439 -237.144)" fill="#3f3d56"/>
    <path id="Path_45" data-name="Path 45" d="M767.993,668.955s-.577,1.373-1.639,3.362a44.7,44.7,0,0,1-5.83,8.532l-.175.188H759.3l-37.406.343H721l-.11-.13-7.256-8.61L710.9,669.4l-.11-.136-.233-.272-.13-.155-.168-.2-5.319-6.31,1.944-8.1,3.31-13.643.084-.33.648-2.591.46-1.943,1.542-6.336,5.286-21.8,9.393,4.859,9.905,17.491,5.319,9.394h2.915c.551,0,1.814,1.062,3.084,2.287.453.434.907.894,1.3,1.3,1.153,1.192,2.067,2.216,2.067,2.216s4.723.1,5.992,3.822a4.553,4.553,0,0,1,.162.551,26.117,26.117,0,0,0,1.639,4.25c.836,1.82,1.885,3.887,2.948,5.953,1.976,3.79,3.984,7.4,4.723,8.707l.091.162Z" transform="translate(-299.824 -327.204)" fill="#15b6ac"/>
    <path id="Path_46" data-name="Path 46" d="M615.156,653.071l-.065.926v.065l-.11,1.49-.862,11.991-1.043,14.446-.3,4.068-.648,8.707v.11l-69.318.648-113.752,1.231v.544h-.091v-.726l.292-9.3.557-18.178.479-15.412.045-1.535a6.821,6.821,0,0,1,7.4-6.588c3.058.259,7.029.576,11.777.913l1.944.143c27.423,1.9,78.1,4.366,129.242,1.3,1.075-.058,2.157-.123,3.239-.2,7.929-.5,15.852-1.14,23.7-1.943a6.822,6.822,0,0,1,7.515,7.275Z" transform="translate(-202.635 -340.57)" opacity="0.1"/>
    <path id="Path_47" data-name="Path 47" d="M429.08,698.718v-.544l113.772-1.237,69.318-.648h.194v-.11l.648-8.707.279-3.887,1.063-14.647.836-11.6v-.285a6.878,6.878,0,0,0-.071-1.6.192.192,0,0,0,0-.065,6.73,6.73,0,0,0-1.3-3.006,6.828,6.828,0,0,0-6.1-2.591c-7.845.8-15.768,1.445-23.7,1.944-1.082.078-2.164.142-3.239.2-51.139,3.038-101.819.576-129.242-1.3L449.6,650.5c-4.749-.337-8.72-.648-11.777-.913a6.828,6.828,0,0,0-7.282,5.526,7.125,7.125,0,0,0-.117,1.063l-.44,14.356-.6,18.185-.285,9.3v.726Z" transform="translate(-202.674 -341.989)" fill="#3f3d56"/>
    <path id="Path_48" data-name="Path 48" d="M615.4,661.679l-.8,9.931-1.186,14.8-.3,3.706-.648,8.3-.039.415v.11h0l-.1.959.071-.959h-.188l-69.318.648L429.11,700.821v-.181l.317-9.3.648-18.178.415-12.082a4.121,4.121,0,0,1,1.982-3.4,4.049,4.049,0,0,1,2.449-.583c1.36.11,3.032.24,4.982.382,3.168.233,7.074.505,11.622.79,8.422.531,18.988,1.1,31.1,1.568,33.687,1.3,79.165,1.73,122.362-2.054,1.944-.168,3.952-.356,5.915-.544a4.055,4.055,0,0,1,2.254.427,3.355,3.355,0,0,1,.557.35,3.979,3.979,0,0,1,1.3,1.594,2.316,2.316,0,0,1,.162.4A4.066,4.066,0,0,1,615.4,661.679Z" transform="translate(-202.684 -344.637)" opacity="0.1"/>
    <path id="Path_49" data-name="Path 49" d="M360.828,677.87v2.067a3.971,3.971,0,0,1-2.267,3.589l-25.978.5a3.965,3.965,0,0,1-2.313-3.608v-1.944Z" transform="translate(-167.875 -351.958)" opacity="0.1"/>
    <path id="Path_50" data-name="Path 50" d="M280.2,512.517l-33.849.648v-5.617L280.2,506.9Z" transform="translate(-86.922 -179.732)" fill="#3f3d56"/>
    <path id="Path_51" data-name="Path 51" d="M280.2,512.517l-33.849.648v-5.617L280.2,506.9Z" transform="translate(-86.922 -179.732)" opacity="0.1"/>
    <path id="Path_52" data-name="Path 52" d="M282.2,512.517l-33.849.648v-5.617L282.2,506.9Z" transform="translate(-87.627 -179.732)" fill="#3f3d56"/>
    <g id="Group_2" data-name="Group 2" transform="translate(277.743 118.185)" opacity="0.1">
      <path id="Path_53" data-name="Path 53" d="M552.224,360.032A6.314,6.314,0,0,1,551,357.22a6.147,6.147,0,0,0,.272,2.98A5.837,5.837,0,0,0,552.224,360.032Z" transform="translate(-523.328 -357.22)"/>
      <path id="Path_54" data-name="Path 54" d="M540.1,366.9a22.77,22.77,0,0,1-.24-2.4v2.4Z" transform="translate(-519.43 -359.784)"/>
      <path id="Path_55" data-name="Path 55" d="M621.706,398.612a11.856,11.856,0,0,1,.233-1.717,11.664,11.664,0,0,0,.518-3.038,3.985,3.985,0,0,0-.1-.687c-.11.6-.285,1.192-.414,1.782A12.4,12.4,0,0,0,621.706,398.612Z" transform="translate(-548.238 -369.881)"/>
      <path id="Path_56" data-name="Path 56" d="M600.922,368.884l.706.512a12.762,12.762,0,0,0,1.665-1.438,2.377,2.377,0,0,0,.246-2.358,1.94,1.94,0,0,1-.246.415C602.5,367.038,600.734,367.6,600.922,368.884Z" transform="translate(-540.93 -360.171)"/>
      <path id="Path_57" data-name="Path 57" d="M518.453,380.29a7.978,7.978,0,0,0-.564,1.477,11.766,11.766,0,0,1,3.239-1.224Z" transform="translate(-511.693 -365.345)"/>
      <path id="Path_58" data-name="Path 58" d="M531.885,368.977a9.611,9.611,0,0,1-1.218-.8,2.753,2.753,0,0,0,.058.764A7.684,7.684,0,0,1,531.885,368.977Z" transform="translate(-516.191 -361.08)"/>
      <path id="Path_59" data-name="Path 59" d="M587.357,428.33c-.266,3.142-1.73,6.167-2.915,9.147a86.963,86.963,0,0,0-4.723,18.664c-.9,5.694-1.943,12.16-6.8,15.315a19.435,19.435,0,0,1-4.425,1.944c-6.984,2.416-14.026,4.839-21.378,5.72s-15.068.11-21.482-3.557a12.957,12.957,0,0,1-4.651-4.1c-1.73-2.74-1.762-6.174-2.591-9.309a53.252,53.252,0,0,0-2.591-6.815c-1.432-3.485-2.533-7.126-3.628-10.709q-1.522-4.995-3.038-10a18.664,18.664,0,0,1-.739-3.077,11.61,11.61,0,0,0,.739,5.021q1.516,5.008,3.038,10c1.095,3.608,2.2,7.223,3.628,10.709a53.272,53.272,0,0,1,2.591,6.815c.816,3.135.849,6.569,2.591,9.309a12.956,12.956,0,0,0,4.651,4.1c6.413,3.667,14.149,4.438,21.482,3.557s14.369-3.3,21.378-5.72a19.435,19.435,0,0,0,4.425-1.943c4.826-3.155,5.9-9.62,6.8-15.315a86.964,86.964,0,0,1,4.723-18.664c1.412-3.55,3.239-7.159,2.928-10.974C587.37,428.408,587.357,428.369,587.357,428.33Z" transform="translate(-508.324 -382.263)"/>
      <path id="Path_60" data-name="Path 60" d="M510.316,421.4v-.071a9.07,9.07,0,0,0-.3-3.4,17.216,17.216,0,0,1-.253-2.151,17.717,17.717,0,0,0,.253,4.094C510.122,420.38,510.239,420.891,510.316,421.4Z" transform="translate(-508.823 -377.843)"/>
      <path id="Path_61" data-name="Path 61" d="M512.445,397.919a17.963,17.963,0,0,1,1.691-2.378c-1.186,1.134-3.375.123-3.835-1.451a3.778,3.778,0,0,0,0,1.943,2.844,2.844,0,0,0,2.144,1.885Z" transform="translate(-508.976 -370.205)"/>
    </g>
    <path id="Path_62" data-name="Path 62" d="M762.944,656.57s2.054,7.45,0,13.928S762.944,656.57,762.944,656.57Z" transform="translate(-319.93 -344.457)" opacity="0.1"/>
    <path id="Path_63" data-name="Path 63" d="M776,668.3s.862,9.458-1.082,11.136S776,668.3,776,668.3Z" transform="translate(-324.238 -348.588)" opacity="0.1"/>
    <line id="Line_1" data-name="Line 1" y1="0.648" x2="65.826" transform="translate(128.746 220.251)" fill="none" stroke="#15b6ac" stroke-miterlimit="10" stroke-width="2"/>
    <line id="Line_2" data-name="Line 2" y1="0.641" x2="65.826" transform="translate(128.746 228.336)" fill="none" stroke="#15b6ac" stroke-miterlimit="10" stroke-width="2"/>
    <line id="Line_3" data-name="Line 3" y1="0.648" x2="65.826" transform="translate(128.746 236.414)" fill="none" stroke="#15b6ac" stroke-miterlimit="10" stroke-width="2"/>
  </g>
</svg>
