<svg xmlns="http://www.w3.org/2000/svg" width="53.865" height="53.866" viewBox="0 0 53.865 53.866">
  <g id="pen-tool" transform="translate(-1 -1)">
    <path id="Path_219" data-name="Path 219" d="M51.39,1H4.475A3.475,3.475,0,0,0,1,4.475V44.44a3.475,3.475,0,0,0,3.475,3.475h9.156a18.188,18.188,0,0,0,28.6,0H51.39a3.475,3.475,0,0,0,3.475-3.475V4.475A3.475,3.475,0,0,0,51.39,1ZM4.475,2.738H51.39a1.738,1.738,0,0,1,1.738,1.738V7.95H2.738V4.475A1.738,1.738,0,0,1,4.475,2.738ZM2.738,14.9V9.688H7.95V14.9Zm6.95-5.213H14.9V14.9H9.688Zm6.95,0h5.213V14.9H16.638Zm6.95,0H28.8V14.9H23.589Zm4.344,43.44A16.507,16.507,0,1,1,44.44,36.621,16.507,16.507,0,0,1,27.933,53.128Zm23.458-6.95H43.445a18.245,18.245,0,1,0-31.025,0H4.475A1.738,1.738,0,0,1,2.738,44.44v-27.8H29.67a.869.869,0,0,0,.869-.869V9.688H53.128V44.44A1.738,1.738,0,0,1,51.39,46.177Z" transform="translate(0)" fill="#292929"/>
    <path id="Path_220" data-name="Path 220" d="M5,5H27.589V6.738H5Z" transform="translate(-0.525 -0.525)" fill="#292929"/>
    <path id="Path_221" data-name="Path 221" d="M33,5h5.213V6.738H33Z" transform="translate(-4.199 -0.525)" fill="#292929"/>
    <path id="Path_222" data-name="Path 222" d="M53,5h1.738V6.738H53Z" transform="translate(-6.823 -0.525)" fill="#292929"/>
    <path id="Path_223" data-name="Path 223" d="M31.36,25.321a.9.9,0,0,0-1.345,0L22.2,34.878a.869.869,0,0,0-.05,1.032l1.07,1.6a13.418,13.418,0,0,1,2.237,6.777,2.606,2.606,0,0,0-1.716,2.433V50.2A2.606,2.606,0,0,0,26.344,52.8h8.688A2.606,2.606,0,0,0,37.638,50.2V46.722a2.606,2.606,0,0,0-1.712-2.439,13.418,13.418,0,0,1,2.233-6.771l1.066-1.6a.869.869,0,0,0-.05-1.032Zm.2,10.107a.869.869,0,1,1-.869-.869A.869.869,0,0,1,31.557,35.428ZM35.9,50.2a.869.869,0,0,1-.869.869H26.344a.869.869,0,0,1-.869-.869V46.722a.869.869,0,0,1,.869-.869h8.688a.869.869,0,0,1,.869.869Zm.818-13.653A15.152,15.152,0,0,0,34.2,44.116H27.181a15.152,15.152,0,0,0-2.52-7.572l-.71-1.063L29.819,28.3v4.677a2.606,2.606,0,1,0,1.738,0V28.3l5.871,7.176Z" transform="translate(-2.755 -3.151)" fill="#292929"/>
    <path id="Path_224" data-name="Path 224" d="M54.475,13a3.475,3.475,0,1,0,3.475,3.475A3.475,3.475,0,0,0,54.475,13Zm0,5.213a1.738,1.738,0,1,1,1.738-1.738A1.738,1.738,0,0,1,54.475,18.213Z" transform="translate(-6.56 -1.574)" fill="#292929"/>
    <path id="Path_225" data-name="Path 225" d="M54.475,23a3.475,3.475,0,1,0,3.475,3.475A3.475,3.475,0,0,0,54.475,23Zm0,5.213a1.738,1.738,0,1,1,1.738-1.738A1.738,1.738,0,0,1,54.475,28.213Z" transform="translate(-6.56 -2.886)" fill="#292929"/>
  </g>
</svg>
