<svg id="graphic" xmlns="http://www.w3.org/2000/svg" width="59.439" height="53.496" viewBox="0 0 59.439 53.496">
  <path id="Path_184" data-name="Path 184" d="M47.308,104H40.991a.991.991,0,0,0-.991.991V128.6a.991.991,0,0,0,.991.991h6.317a.991.991,0,0,0,.991-.991v-23.61A.991.991,0,0,0,47.308,104Zm-.991,3.963H44.953v1.981h1.364v1.981H44.293v1.981h2.025v1.981H44.953v1.981h1.364v1.981H44.293v1.981h2.025v1.981H44.953v1.981h1.364v1.816H41.981V105.981h4.336Zm0,0" transform="translate(-35.047 -91.121)" fill="#292929"/>
  <path id="Path_185" data-name="Path 185" d="M56.468,0H2.972A2.972,2.972,0,0,0,0,2.972V40.617a2.972,2.972,0,0,0,2.972,2.972H22.785V47.93l-3.415,1.707a.991.991,0,0,0-.548.887V52.5a.991.991,0,0,0,.991.991H39.626a.991.991,0,0,0,.991-.991V50.524a.99.99,0,0,0-.548-.891l-3.415-1.7V43.589H56.468a2.972,2.972,0,0,0,2.972-2.972V2.972A2.972,2.972,0,0,0,56.468,0ZM38.636,51.136v.378H20.8v-.378l3.415-1.7a.99.99,0,0,0,.548-.891V43.589h9.907v4.953a.99.99,0,0,0,.548.891ZM57.458,40.617a.991.991,0,0,1-.991.991H2.972a.991.991,0,0,1-.991-.991V9.907H31.7V10.9a.991.991,0,0,1-.991.991H24.766a2.972,2.972,0,1,0,0,5.944H30.71a.991.991,0,0,1,.991.991v1.07a6.934,6.934,0,0,0-5.944,6.855v5.944a6.935,6.935,0,0,0,13.869,0V26.748a6.934,6.934,0,0,0-5.944-6.855v-1.07A2.972,2.972,0,0,0,30.71,15.85H24.766a.991.991,0,0,1,0-1.981H30.71A2.972,2.972,0,0,0,33.682,10.9V9.907H57.458ZM32.692,21.794a4.959,4.959,0,0,1,4.953,4.953v5.944a4.953,4.953,0,0,1-9.907,0V26.748A4.959,4.959,0,0,1,32.692,21.794ZM57.458,7.925H1.981V2.972a.991.991,0,0,1,.991-.991h53.5a.991.991,0,0,1,.991.991Zm0,0" fill="#292929"/>
  <path id="Path_186" data-name="Path 186" d="M400,32h1.981v1.981H400Zm0,0" transform="translate(-350.467 -28.037)" fill="#292929"/>
  <path id="Path_187" data-name="Path 187" d="M432,32h1.981v1.981H432Zm0,0" transform="translate(-378.504 -28.037)" fill="#292929"/>
  <path id="Path_188" data-name="Path 188" d="M345.505,96.919h-.518V98.9h.991V114.75a2.972,2.972,0,0,0,5.944,0v-.991H353.9a.991.991,0,0,0,.991-.991v-4.953a.99.99,0,0,0-.548-.892l-.752-.375,1.01-1.01-1.4-1.4-1.281,1.286V98.9h.991V96.919h-.518l1.439-3.594a.991.991,0,0,0-.22-1.069l-3.963-3.963a.991.991,0,0,0-1.4,0l-3.963,3.963a.991.991,0,0,0-.22,1.069Zm6.417,11.014.991.5v3.35h-.991Zm-1.981,6.818a.991.991,0,1,1-1.981,0v-.991h1.981Zm0-2.972h-1.981V98.9h1.981Zm-1.981-20.394v2.562h1.981V91.385l1.81,1.81-1.49,3.724h-2.622l-1.486-3.724Zm0,0" transform="translate(-301.398 -77.105)" fill="#292929"/>
  <path id="Path_189" data-name="Path 189" d="M256,192h1.981v2.972H256Zm0,0" transform="translate(-224.299 -168.224)" fill="#292929"/>
  <path id="Path_190" data-name="Path 190" d="M131.963,200A3.963,3.963,0,0,0,128,203.963v8.916a.991.991,0,0,0,.991.991h5.944a.991.991,0,0,0,.991-.991v-8.916A3.963,3.963,0,0,0,131.963,200Zm1.981,11.888h-3.963v-5.944h3.963Zm-3.963-7.925a1.981,1.981,0,0,1,3.963,0Zm0,0" transform="translate(-112.149 -175.234)" fill="#292929"/>
</svg>
