<svg xmlns="http://www.w3.org/2000/svg" width="53.866" height="53.866" viewBox="0 0 53.866 53.866">
  <g id="mobile-app_1_" data-name="mobile-app (1)" transform="translate(-1 -1)">
    <path id="Path_191" data-name="Path 191" d="M54.866,28.8a12.179,12.179,0,0,0-9.557-11.875V5.344A4.349,4.349,0,0,0,40.965,1H18.376a4.349,4.349,0,0,0-4.344,4.344V14.9H9.009L8.486,17,6.632,15.887,1.985,20.531,3.1,22.386,1,22.91v6.57L3.1,30,1.985,31.86,6.631,36.5l1.854-1.113.525,2.1h5.023V50.522a4.349,4.349,0,0,0,4.344,4.344H40.965a4.349,4.349,0,0,0,4.344-4.344V40.676A12.179,12.179,0,0,0,54.866,28.8Zm-1.738,0a10.348,10.348,0,0,1-1.134,4.7,4.334,4.334,0,0,0-3.025-2.729l-3.66-.916v-.208A4.349,4.349,0,0,0,47.047,26.2V24.459a4.344,4.344,0,0,0-4.73-4.328,4.469,4.469,0,0,0-3.958,4.506V26.2A4.349,4.349,0,0,0,40.1,29.652v.208l-3.66.916A4.334,4.334,0,0,0,33.411,33.5a10.421,10.421,0,1,1,19.717-4.7ZM40.1,16.927a12.064,12.064,0,0,0-1.738.527V14.9H20.982V27.064h9.7A12.045,12.045,0,0,0,40.1,40.676V42.7H19.245V13.163H40.1Zm-9.044,8.4H22.72V16.638h13.9v1.646A12.205,12.205,0,0,0,31.052,25.326ZM18.376,2.738H40.965a2.61,2.61,0,0,1,2.606,2.606V7.95H15.77V5.344A2.61,2.61,0,0,1,18.376,2.738Zm-4.344,27.43a4.344,4.344,0,1,1,0-7.944Zm-3.665,5.585-.423-1.693-.176-.465-.992-.4L6.9,34.317,4.174,31.59,5.3,29.714l-.434-1.06-2.128-.531V24.267l2.125-.531.437-1.06L4.174,20.8,6.9,18.074,8.775,19.2l1.06-.431.532-2.13h3.665v3.74a6.082,6.082,0,1,0,0,11.633v3.74Zm30.6,17.376H18.376a2.61,2.61,0,0,1-2.606-2.606V47.915h27.8v2.606A2.61,2.61,0,0,1,40.965,53.128Zm2.606-6.95H15.77V9.688h27.8v6.995c-.288-.021-.575-.044-.869-.044s-.58.023-.869.044V11.426H17.507V44.44H41.834v-3.52c.288.021.575.044.869.044s.58-.023.869-.044Zm-.869-6.95a10.4,10.4,0,0,1-7.819-3.553V34.99a2.6,2.6,0,0,1,1.974-2.529l4.976-1.243V28.689l-.432-.251A2.579,2.579,0,0,1,40.1,26.2V24.637a2.723,2.723,0,0,1,2.371-2.776,2.606,2.606,0,0,1,2.842,2.6V26.2A2.579,2.579,0,0,1,44,28.438l-.432.251v2.529l4.976,1.243a2.6,2.6,0,0,1,1.974,2.529v.685A10.4,10.4,0,0,1,42.7,39.227Z" transform="translate(0 0)" fill="#15b6ac"/>
    <path id="Path_192" data-name="Path 192" d="M38,5h1.738V6.738H38Z" transform="translate(-4.854 -0.525)" fill="#15b6ac"/>
    <path id="Path_193" data-name="Path 193" d="M28,5h6.95V6.738H28Z" transform="translate(-3.542 -0.525)" fill="#15b6ac"/>
    <path id="Path_194" data-name="Path 194" d="M30,57h6.95v1.738H30Z" transform="translate(-3.805 -7.347)" fill="#15b6ac"/>
    <path id="Path_195" data-name="Path 195" d="M44,57h1.738v1.738H44Z" transform="translate(-5.642 -7.347)" fill="#15b6ac"/>
    <path id="Path_196" data-name="Path 196" d="M22,57h1.738v1.738H22Z" transform="translate(-2.755 -7.347)" fill="#15b6ac"/>
    <path id="Path_197" data-name="Path 197" d="M24,33h7.819v1.738H24Z" transform="translate(-3.018 -4.198)" fill="#15b6ac"/>
    <path id="Path_198" data-name="Path 198" d="M24,37h7.819v1.738H24Z" transform="translate(-3.018 -4.723)" fill="#15b6ac"/>
    <path id="Path_199" data-name="Path 199" d="M24,41h7.819v1.738H24Z" transform="translate(-3.018 -5.248)" fill="#15b6ac"/>
    <path id="Path_200" data-name="Path 200" d="M24,45h7.819v1.738H24Z" transform="translate(-3.018 -5.773)" fill="#15b6ac"/>
    <path id="Path_201" data-name="Path 201" d="M56.606,17.163a2.6,2.6,0,0,0,.869-5.053V5H55.738v7.11a2.6,2.6,0,0,0,.869,5.053Zm0-3.475a.869.869,0,1,1-.869.869A.87.87,0,0,1,56.606,13.688Z" transform="translate(-6.953 -0.525)" fill="#15b6ac"/>
    <path id="Path_202" data-name="Path 202" d="M56,1h1.738V2.738H56Z" transform="translate(-7.216)" fill="#15b6ac"/>
    <path id="Path_203" data-name="Path 203" d="M10.606,45a2.6,2.6,0,0,0-.869,5.053v7.11h1.738v-7.11A2.6,2.6,0,0,0,10.606,45Zm0,3.475a.869.869,0,1,1,.869-.869A.87.87,0,0,1,10.606,48.475Z" transform="translate(-0.918 -5.773)" fill="#15b6ac"/>
    <path id="Path_204" data-name="Path 204" d="M10,61h1.738v1.738H10Z" transform="translate(-1.181 -7.872)" fill="#15b6ac"/>
  </g>
</svg>
