<svg id="web-maintenance" xmlns="http://www.w3.org/2000/svg" width="54.675" height="54.675" viewBox="0 0 54.675 54.675">
  <path id="XMLID_294_" d="M51.471,8.543H48.908V3.2A3.207,3.207,0,0,0,45.7,0H8.97a3.207,3.207,0,0,0-3.2,3.2V8.543H3.2a3.207,3.207,0,0,0-3.2,3.2V42.5a3.207,3.207,0,0,0,3.2,3.2H22v2.563H19.967a3.207,3.207,0,0,0-3.2,3.2v2.136a1.068,1.068,0,0,0,1.068,1.068H36.844a1.068,1.068,0,0,0,1.068-1.068V51.471a3.207,3.207,0,0,0-3.2-3.2H32.677V45.7H51.471a3.207,3.207,0,0,0,3.2-3.2V11.747A3.207,3.207,0,0,0,51.471,8.543Zm0,2.136a1.069,1.069,0,0,1,1.068,1.068V36.307H48.908V10.679ZM8.97,2.136H45.7A1.069,1.069,0,0,1,46.773,3.2V8.543H7.9V3.2A1.069,1.069,0,0,1,8.97,2.136ZM3.2,10.679H5.766v8.008a1.068,1.068,0,0,0,2.136,0V10.679h38.87V36.307H41.326V32.788a1.068,1.068,0,0,0-1.068-1.068H38.869a11.881,11.881,0,0,0-1-2.417l.983-.983a1.068,1.068,0,0,0,0-1.51l-3.242-3.242a1.068,1.068,0,0,0-1.51,0l-.983.983a11.873,11.873,0,0,0-2.417-1V22.16a1.068,1.068,0,0,0-1.068-1.068H25.045a1.068,1.068,0,0,0-1.068,1.068v1.389a11.881,11.881,0,0,0-2.417,1l-.983-.983a1.068,1.068,0,0,0-1.51,0L15.824,26.81a1.068,1.068,0,0,0,0,1.51l.983.983a11.879,11.879,0,0,0-1,2.417H14.416a1.068,1.068,0,0,0-1.068,1.068v3.519H7.9V28.3a1.068,1.068,0,1,0-2.136,0v8.01H2.136V11.747A1.069,1.069,0,0,1,3.2,10.679Zm15.7,17.7-.816-.816,1.732-1.732.816.816a1.068,1.068,0,0,0,1.336.141,9.781,9.781,0,0,1,3.294-1.365,1.068,1.068,0,0,0,.845-1.044V23.227h2.449v1.154a1.068,1.068,0,0,0,.845,1.044A9.781,9.781,0,0,1,32.7,26.79a1.068,1.068,0,0,0,1.336-.141l.816-.816,1.732,1.732-.816.816a1.068,1.068,0,0,0-.141,1.336,9.783,9.783,0,0,1,1.365,3.294,1.068,1.068,0,0,0,1.044.845h1.153v2.451H32.533a5.34,5.34,0,1,0-10.392,0H15.484V33.856h1.153a1.068,1.068,0,0,0,1.044-.845,9.781,9.781,0,0,1,1.365-3.294,1.068,1.068,0,0,0-.141-1.336Zm5.227,6.7a3.2,3.2,0,1,1,6.161,1.227H24.38A3.186,3.186,0,0,1,24.133,35.081Zm11.643,16.39v1.068H18.9V51.471A1.069,1.069,0,0,1,19.967,50.4H34.708a1.069,1.069,0,0,1,1.068,1.068Zm-5.235-3.2H24.134V45.7h6.407Zm20.93-4.7H3.2A1.069,1.069,0,0,1,2.136,42.5V38.443h50.4V42.5A1.069,1.069,0,0,1,51.471,43.569Z" fill="#292929"/>
  <path id="XMLID_1617_" d="M277.068,42.136H288.6a1.068,1.068,0,1,0,0-2.136H277.068a1.068,1.068,0,1,0,0,2.136Z" transform="translate(-246.527 -35.729)" fill="#292929"/>
  <path id="XMLID_1618_" d="M153.068,42.136a1.068,1.068,0,1,0-.755-.313A1.076,1.076,0,0,0,153.068,42.136Z" transform="translate(-135.768 -35.729)" fill="#292929"/>
  <path id="XMLID_1620_" d="M109.068,42.136a1.068,1.068,0,1,0-.755-.313A1.076,1.076,0,0,0,109.068,42.136Z" transform="translate(-96.467 -35.729)" fill="#292929"/>
  <path id="XMLID_1623_" d="M197.068,42.136a1.068,1.068,0,1,0-.755-.313A1.076,1.076,0,0,0,197.068,42.136Z" transform="translate(-175.07 -35.729)" fill="#292929"/>
  <path id="XMLID_1624_" d="M103.068,130.134h2.541a1.068,1.068,0,1,0,0-2.136h-2.541a1.068,1.068,0,1,0,0,2.136Z" transform="translate(-91.108 -114.33)" fill="#292929"/>
  <path id="XMLID_1626_" d="M170.866,130.134h9.8a1.068,1.068,0,1,0,0-2.136h-9.8a1.068,1.068,0,1,0,0,2.136Z" transform="translate(-151.666 -114.33)" fill="#292929"/>
  <path id="XMLID_1627_" d="M103.068,178.132h6.194a1.068,1.068,0,1,0,0-2.136h-6.194a1.068,1.068,0,1,0,0,2.136Z" transform="translate(-91.108 -157.202)" fill="#292929"/>
  <path id="XMLID_1628_" d="M306.6,130.134h9.02a1.068,1.068,0,1,0,0-2.136H306.6a1.068,1.068,0,1,0,0,2.136Z" transform="translate(-272.909 -114.33)" fill="#292929"/>
  <path id="XMLID_1633_" d="M329.937,176h-7.308a1.068,1.068,0,1,0,0,2.136h7.308a1.068,1.068,0,1,0,0-2.136Z" transform="translate(-287.223 -157.202)" fill="#292929"/>
  <path id="XMLID_1635_" d="M55.068,212.126a1.068,1.068,0,1,0-.755-.313A1.076,1.076,0,0,0,55.068,212.126Z" transform="translate(-48.234 -187.566)" fill="#292929"/>
</svg>
